#N canvas 253 60 1034 645 10;
#X obj 166 419 list prepend;
#X obj 49 49 inlet;
#X obj 166 270 t b f f;
#N canvas 802 309 335 275 delete_existing_preset 0;
#X obj 41 129 sel -1;
#X obj 41 75 f;
#X obj 41 34 inlet;
#X obj 74 150 t b f;
#X obj 41 109 text search \$0-presets 0;
#X obj 101 170 text delete \$0-presets;
#X connect 0 1 3 0;
#X connect 1 0 4 0;
#X connect 2 0 1 0;
#X connect 3 0 1 0;
#X connect 3 1 5 0;
#X connect 4 0 0 0;
#X restore 283 286 pd delete_existing_preset;
#N canvas 1033 84 395 457 send_preset_values 0;
#X obj 41 171 sel -1;
#X obj 71 112 + 1;
#X obj 41 55 t f b;
#X obj 41 75 f;
#X obj 74 192 t b f f;
#X obj 113 349 s;
#X obj 41 34 inlet;
#X msg 68 75 range 0 1e+09;
#X msg 71 130 range \$1 1e+09;
#X obj 41 151 text search \$0-presets 0;
#X obj 221 34 inlet;
#X text 257 33 parent's \$0;
#X msg 176 332 symbol \$2-preset-\$1;
#X obj 113 312 list;
#X obj 113 292 t b s;
#X obj 176 312 pack s s;
#N canvas 121 146 450 300 any2symbol 0;
#X obj 196 134 makefilename %i;
#X obj 144 114 route symbol float;
#X obj 144 161 outlet;
#X obj 144 94 inlet;
#X connect 0 0 2 0;
#X connect 1 0 2 0;
#X connect 1 1 0 0;
#X connect 3 0 1 0;
#X restore 113 272 pd any2symbol;
#X obj 113 232 list split 2;
#X obj 113 252 list split 1;
#X obj 113 212 text get \$0-presets;
#X connect 0 1 4 0;
#X connect 1 0 8 0;
#X connect 2 0 3 0;
#X connect 2 1 7 0;
#X connect 3 0 9 0;
#X connect 4 0 3 0;
#X connect 4 1 1 0;
#X connect 4 2 19 0;
#X connect 6 0 2 0;
#X connect 7 0 9 0;
#X connect 8 0 9 0;
#X connect 9 0 0 0;
#X connect 10 0 15 1;
#X connect 12 0 5 1;
#X connect 13 0 5 0;
#X connect 14 0 13 0;
#X connect 14 1 15 0;
#X connect 15 0 12 0;
#X connect 16 0 14 0;
#X connect 17 0 18 0;
#X connect 17 1 13 1;
#X connect 18 1 16 0;
#X connect 19 0 17 0;
#X restore 49 494 pd send_preset_values;
#X obj 779 435 savestate;
#X text 778 504 state saving to store values in parent patches, f 24;
#X text 326 302 delete preset values before saving new ones;
#X text 189 369 send store "intent" to preset objects;
#X text 326 400 receive and store values from preset objects;
#X obj 205 176 pdcontrol;
#X obj 205 196 openpanel, f 10;
#X obj 331 196 savepanel;
#X msg 205 152 dir 1;
#X obj 331 176 pdcontrol;
#X msg 331 152 dir 1;
#X obj 205 123 route bang;
#X obj 267 176 symbol;
#X msg 205 217 read -c \$1;
#X msg 331 217 write -c \$1;
#N canvas 287 311 759 218 create_receive-preset-insert 0;
#X obj 31 31 inlet;
#X obj 31 135 s pd-\$0-receive-preset-insert;
#X msg 31 84 clear \, obj 100 100 r \$1-preset-insert \, obj 100 140 s \\\$0-receive-preset-insert \, connect 0 0 1 0, f 95;
#X connect 0 0 2 0;
#X connect 2 0 1 0;
#X restore 780 383 pd create_receive-preset-insert;
#X obj 782 264 loadbang;
#X obj 331 245 text define \$0-presets;
#X obj 830 455 text tolist \$0-presets;
#X obj 779 489 text fromlist \$0-presets;
#X obj 166 439 text insert \$0-presets;
#X obj 166 399 r \$0-receive-preset-insert;
#X obj 707 199 s;
#X obj 782 304 s \$0-parentdollarzero;
#X obj 785 123 r \$0-parentdollarzero;
#X obj 181 321 r \$0-parentdollarzero;
#X obj 166 369 s;
#X obj 250 468 r \$0-parentdollarzero;
#X obj 780 363 r \$0-parentdollarzero;
#X text 216 570 <-- dynamic receiver. delete before resaving this patch (not critical \, but cleaner), f 83;
#X obj 49 570 cnv 16 16 16 empty empty empty 20 12 0 12 #ff0400 #404040 0;
#N canvas 80 209 427 244 \$0-receive-preset-insert 0;
#X restore 49 570 pd \$0-receive-preset-insert;
#X obj 166 217 f;
#X obj 166 123 route bang, f 5;
#X text 181 494 send stored values to preset objects;
#X msg 181 341 symbol \$1-preset-param;
#X msg 166 291 store;
#X msg 785 143 symbol \$1-preset-param;
#X msg 707 144 easemode \$1;
#X obj 707 123 symbol;
#X text 730 199 send ease time and mode to preset objects;
#X msg 604 123 grain \$1;
#X text 67 588 FIXME: replace with general presetter receiver?;
#N canvas 602 81 345 457 send_preset_target 0;
#X obj 41 169 sel -1;
#X obj 71 108 + 1;
#X obj 41 55 t f b;
#X obj 41 75 f;
#X obj 74 190 t b f f;
#X obj 113 392 s;
#X obj 41 34 inlet;
#X msg 68 75 range 0 1e+09;
#X msg 71 129 range \$1 1e+09;
#X obj 41 149 text search \$0-presets 0;
#X obj 191 34 inlet;
#X text 227 33 parent's \$0;
#X msg 145 376 symbol \$2-preset-\$1;
#X obj 113 311 list;
#X obj 113 332 list prepend target;
#X obj 113 353 list trim;
#N canvas 121 146 450 300 any2symbol 0;
#X obj 196 134 makefilename %i;
#X obj 144 114 route symbol float;
#X obj 144 161 outlet;
#X obj 144 94 inlet;
#X connect 0 0 2 0;
#X connect 1 0 2 0;
#X connect 1 1 0 0;
#X connect 3 0 1 0;
#X restore 113 270 pd any2symbol;
#X obj 113 291 t b s;
#X obj 145 311 pack s s;
#X obj 113 210 text get \$0-presets;
#X obj 113 230 list split 2;
#X obj 113 250 list split 1;
#X connect 0 1 4 0;
#X connect 1 0 8 0;
#X connect 2 0 3 0;
#X connect 2 1 7 0;
#X connect 3 0 9 0;
#X connect 4 0 3 0;
#X connect 4 1 1 0;
#X connect 4 2 19 0;
#X connect 6 0 2 0;
#X connect 7 0 9 0;
#X connect 8 0 9 0;
#X connect 9 0 0 0;
#X connect 10 0 18 1;
#X connect 12 0 5 1;
#X connect 13 0 14 0;
#X connect 14 0 15 0;
#X connect 15 0 5 0;
#X connect 16 0 17 0;
#X connect 17 0 13 0;
#X connect 17 1 18 0;
#X connect 18 0 12 0;
#X connect 19 0 20 0;
#X connect 20 0 21 0;
#X connect 20 1 13 1;
#X connect 21 1 16 0;
#X restore 127 514 pd send_preset_target;
#X text 263 515 FIXME: redundancy!;
#X msg 759 103 morph \$1;
#X msg 655 103 easetime \$1;
#X obj 782 284 iemguts/canvasdollarzero 1;
#X obj 283 123 route bang, f 5;
#X obj 283 217 f;
#X msg 361 123 click;
#X msg 400 123 clear;
#X text 879 586 Ben Wesch \, 2024;
#X obj 604 79 route grain easetime easemode morph;
#X obj 451 178 f;
#X obj 49 123 t f f f f;
#X obj 439 123 route bang, f 5;
#X obj 474 244 t b f f;
#X msg 476 326 record;
#X msg 478 178 stop;
#X text 309 435 FIXME: shouldn't the objects send their data including the preset index?;
#X text 525 248 FIXME: remove redundancy with store?;
#X obj 517 143 tgl 16 0 empty empty empty 0 -8 0 10 #fcfcfc #000000 #000000 0 1;
#X obj 517 123 route bang;
#X obj 49 79 route float restore target store load save delete click edit clear record stop showid, f 85;
#X msg 538 143 showid \$1;
#N canvas 1285 397 265 210 args 0;
#X obj 38 41 loadbang;
#X msg 38 61 args;
#X obj 38 81 pdcontrol;
#X obj 38 101 x/argsparse;
#X obj 38 144 outlet;
#X connect 0 0 1 0;
#X connect 1 0 2 0;
#X connect 2 0 3 0;
#X connect 3 0 4 0;
#X connect 3 1 4 0;
#X restore 87 49 pd args;
#X connect 0 0 25 0;
#X connect 1 0 69 0;
#X connect 2 0 41 0;
#X connect 2 1 0 1;
#X connect 2 2 3 0;
#X connect 5 0 24 0;
#X connect 5 1 23 0;
#X connect 10 0 11 0;
#X connect 11 0 18 0;
#X connect 12 0 19 0;
#X connect 13 0 10 0;
#X connect 14 0 12 0;
#X connect 15 0 14 0;
#X connect 16 0 13 0;
#X connect 16 1 17 0;
#X connect 17 0 18 0;
#X connect 18 0 22 0;
#X connect 19 0 22 0;
#X connect 21 0 52 0;
#X connect 23 0 5 0;
#X connect 26 0 0 0;
#X connect 29 0 42 0;
#X connect 30 0 40 0;
#X connect 32 0 4 1;
#X connect 32 0 48 1;
#X connect 33 0 20 0;
#X connect 37 0 2 0;
#X connect 38 0 37 0;
#X connect 38 1 37 0;
#X connect 40 0 31 1;
#X connect 41 0 31 0;
#X connect 42 0 27 1;
#X connect 43 0 27 0;
#X connect 44 0 43 0;
#X connect 46 0 27 0;
#X connect 50 0 27 0;
#X connect 51 0 27 0;
#X connect 52 0 28 0;
#X connect 53 0 54 0;
#X connect 53 1 54 0;
#X connect 54 0 3 0;
#X connect 55 0 22 0;
#X connect 56 0 22 0;
#X connect 58 0 46 0;
#X connect 58 1 51 0;
#X connect 58 2 44 0;
#X connect 58 3 50 0;
#X connect 59 0 62 0;
#X connect 60 0 4 0;
#X connect 60 1 37 1;
#X connect 60 2 54 1;
#X connect 60 3 59 1;
#X connect 61 0 59 0;
#X connect 61 1 59 0;
#X connect 62 0 63 0;
#X connect 62 1 0 1;
#X connect 62 2 3 0;
#X connect 63 0 31 0;
#X connect 64 0 31 0;
#X connect 67 0 70 0;
#X connect 68 0 67 0;
#X connect 68 1 70 0;
#X connect 69 0 60 0;
#X connect 69 1 60 0;
#X connect 69 2 48 0;
#X connect 69 3 38 0;
#X connect 69 4 16 0;
#X connect 69 5 15 0;
#X connect 69 6 53 0;
#X connect 69 7 55 0;
#X connect 69 8 55 0;
#X connect 69 9 56 0;
#X connect 69 10 61 0;
#X connect 69 11 64 0;
#X connect 69 12 68 0;
#X connect 69 13 58 0;
#X connect 70 0 31 0;
#X connect 71 0 69 0;
