#N canvas 291 43 1132 775 10;
#X obj 63 41 inlet;
#X obj 69 653 outlet;
#X obj 51 53 cnv 6 6 10 empty \$0-background s 1 5 0 8 #ffffff #292929 0;
#X obj 42 324 r \$0-r;
#X msg 129 246 symbol \$1-preset-insert;
#X obj 42 262 s;
#X obj 972 57 cnv 16 16 16 empty empty empty 20 12 0 12 #ff0400 #404040 0;
#X obj 972 77 cnv 16 16 16 empty empty empty 20 12 0 12 #ff0400 #404040 0;
#X text 255 435 send callback;
#X obj 820 184 savestate;
#X obj 747 567 f;
#X obj 772 567 + 1;
#X obj 747 518 s;
#X obj 703 587 f, f 7;
#X obj 703 607 sel 1, f 7;
#X obj 747 547 r \$0-ping;
#X msg 747 498 ping \$1-ping;
#X text 794 566 count received pings;
#X obj 747 655 s \$0-retry;
#X msg 786 446 symbol \$2-preset-\$1;
#X text 749 607 check if id was counted exactly once - otherwise retry;
#X msg 774 518 1;
#X text 797 517 send ping with callback receiver message;
#N canvas 450 231 596 169 create_value_bridge 0;
#X obj 31 31 inlet;
#X obj 31 85 s pd-\$0-value-bridge;
#X msg 31 58 clear \, obj 60 60 r \$2-preset-\$1 \, obj 60 100 s \\\$0-r \, connect 0 0 1 0, f 71;
#X connect 0 0 2 0;
#X connect 2 0 1 0;
#X restore 910 466 pd create_value_bridge;
#X obj 703 698 s \$0-unique-id;
#N canvas 521 244 447 190 \$0-value-bridge 0;
#X restore 972 77 pd \$0-value-bridge;
#X text 896 96 dynamically generated receivers;
#X text 561 699 use approved unique id;
#X text 804 547 receive ping from any object with this id;
#N canvas 1135 250 526 571 background 0;
#X obj 139 517 s \$0-background;
#X msg 139 214 0 1 2;
#X obj 139 265 unpack f f f;
#X obj 139 337 pack f f f;
#X obj 139 154 f;
#X obj 157 386 r \$0-kwarg-START;
#X obj 154 86 r \$0-unique-id;
#X obj 43 126 route black bang;
#X obj 34 351 r \$0-kwarg-black;
#X obj 139 245 x/shuffle;
#X obj 139 358 x/rgb2hex;
#X obj 145 472 list;
#X obj 145 493 list trim;
#X obj 293 204 f;
#X obj 293 225 cos;
#X obj 274 161 sel 0;
#X obj 412 204 f;
#X obj 412 225 cos;
#X obj 412 183 metro 40;
#X obj 293 183 metro 40;
#X obj 139 451 t a a;
#X obj 274 106 t f f b;
#X obj 393 106 t f f b;
#X msg 432 162 0;
#X msg 313 161 0;
#X obj 293 367 x/byte2hex;
#X obj 412 367 x/byte2hex;
#X obj 412 388 pack s 0;
#X obj 293 388 pack s 0;
#X obj 293 327 clip 0 255;
#X obj 412 327 clip 0 255;
#X obj 319 204 + 0.2;
#X obj 438 204 + 0.2;
#X obj 293 286 * 255;
#X obj 412 286 * 255;
#X obj 293 245 * 0.3;
#X obj 293 265 + 0.8;
#X obj 412 265 + 0.8;
#X obj 412 245 * 0.3;
#X obj 93 154 symbol;
#X msg 180 214 seed \$1;
#X obj 81 30 r \$0-kwarg-color;
#X obj 43 106 list;
#X obj 43 30 inlet;
#X obj 43 86 spigot 0;
#X msg 108 70 1;
#X obj 81 50 t a b;
#X obj 154 106 x/checksum;
#X msg 43 372 symbol #000000;
#X msg 412 409 color #\$2\$2\$1\$2\$2, f 11;
#X msg 293 409 color #\$1\$2\$2\$2\$2, f 11;
#X msg 139 431 color \$1;
#X msg 157 406 color #ffffff;
#X obj 180 190 t a a a a;
#X obj 139 174 t b f;
#X obj 189 300 x/col 4;
#X obj 239 300 x/col 7;
#X obj 139 300 x/col 3;
#X obj 393 86 r \$0-state-play;
#X obj 274 86 r \$0-state-record;
#X connect 1 0 9 0;
#X connect 2 0 57 0;
#X connect 2 1 55 0;
#X connect 2 2 56 0;
#X connect 3 0 10 0;
#X connect 4 0 54 0;
#X connect 5 0 52 0;
#X connect 6 0 47 0;
#X connect 7 0 48 0;
#X connect 7 1 4 0;
#X connect 7 2 39 0;
#X connect 8 0 48 0;
#X connect 9 0 2 0;
#X connect 10 0 51 0;
#X connect 11 0 12 0;
#X connect 12 0 0 0;
#X connect 13 0 14 0;
#X connect 13 0 31 0;
#X connect 14 0 35 0;
#X connect 15 0 11 0;
#X connect 16 0 17 0;
#X connect 16 0 32 0;
#X connect 17 0 38 0;
#X connect 18 0 16 0;
#X connect 19 0 13 0;
#X connect 20 0 0 0;
#X connect 20 1 11 1;
#X connect 21 0 15 0;
#X connect 21 1 19 0;
#X connect 21 2 24 0;
#X connect 22 0 15 0;
#X connect 22 1 18 0;
#X connect 22 2 23 0;
#X connect 23 0 16 1;
#X connect 24 0 13 1;
#X connect 25 0 28 0;
#X connect 26 0 27 0;
#X connect 27 0 49 0;
#X connect 28 0 50 0;
#X connect 29 0 25 0;
#X connect 30 0 26 0;
#X connect 31 0 13 1;
#X connect 32 0 16 1;
#X connect 33 0 29 0;
#X connect 34 0 30 0;
#X connect 35 0 36 0;
#X connect 36 0 33 0;
#X connect 37 0 34 0;
#X connect 38 0 37 0;
#X connect 39 0 51 0;
#X connect 40 0 9 0;
#X connect 41 0 46 0;
#X connect 42 0 7 0;
#X connect 43 0 44 0;
#X connect 44 0 42 0;
#X connect 45 0 44 1;
#X connect 46 0 42 1;
#X connect 46 1 45 0;
#X connect 47 0 4 1;
#X connect 48 0 51 0;
#X connect 49 0 0 0;
#X connect 50 0 0 0;
#X connect 51 0 20 0;
#X connect 52 0 20 0;
#X connect 53 0 40 0;
#X connect 53 1 57 1;
#X connect 53 2 55 1;
#X connect 53 3 56 1;
#X connect 54 0 1 0;
#X connect 54 1 53 0;
#X connect 55 0 3 1;
#X connect 56 0 3 2;
#X connect 57 0 3 0;
#X connect 58 0 22 0;
#X connect 59 0 21 0;
#X restore 637 104 pd background;
#X obj 42 120 list;
#X obj 42 100 t b b;
#X obj 42 215 list prepend;
#X obj 120 451 list, f 5;
#X obj 103 396 list append 0;
#X msg 453 461 easemode \$1;
#X obj 296 64 r \$0-receive-preset-param;
#N canvas 521 244 450 182 \$0-param-bridge 0;
#X restore 972 57 pd \$0-param-bridge;
#N canvas 328 465 720 215 create_param_bridge 0;
#X obj 34 32 inlet;
#X msg 34 79 clear \, obj 60 60 r \$1-preset-param \, obj 60 100 s \\\$0-receive-preset-param \, connect 0 0 1 0, f 90;
#X obj 34 125 s pd-\$0-param-bridge;
#X text 69 33 parent \$0;
#X connect 0 0 1 0;
#X connect 1 0 2 0;
#X restore 910 446 pd create_param_bridge;
#X obj 453 441 symbol;
#X msg 531 461 grain \$1;
#X msg 590 461 morph \$1;
#X obj 222 456 s;
#X obj 222 416 symbol;
#X obj 222 436 t b s;
#X text 59 169 bang to catch values, f 7;
#X obj 435 319 route easetime easemode grain morph;
#N canvas 121 158 539 411 ease_list 0;
#X obj 38 36 inlet;
#X obj 436 129 list length;
#X obj 349 113 t b l l;
#X obj 436 149 - 1;
#X obj 369 168 list split, f 12;
#X obj 402 188 route float;
#X msg 189 228 easemode \$1;
#X obj 189 208 symbol;
#X msg 278 188 set 0 \, 1;
#X obj 278 364 outlet;
#X obj 38 113 s \$0-morph;
#X obj 106 113 s \$0-easemode;
#X obj 192 113 s \$0-grain;
#X obj 189 288 r \$0-morph;
#X obj 189 188 r \$0-easemode;
#X obj 402 228 r \$0-grain;
#X obj 276 113 t b l;
#X obj 276 133 s \$0-morphbang;
#X obj 189 268 r \$0-morphbang;
#X text 310 35 target;
#X text 354 97 direct list input;
#X text 206 35 set;
#X obj 231 36 inlet;
#X obj 276 36 inlet;
#X obj 38 76 route morph easemode grain, f 39;
#X obj 278 244 x/line_eased;
#X obj 278 324 x/list_interpolate;
#X obj 189 308 x/edgefade;
#X connect 0 0 24 0;
#X connect 1 0 3 0;
#X connect 2 0 8 0;
#X connect 2 1 4 0;
#X connect 2 2 1 0;
#X connect 3 0 4 1;
#X connect 4 0 26 2;
#X connect 4 1 5 0;
#X connect 5 0 25 1;
#X connect 6 0 25 0;
#X connect 7 0 6 0;
#X connect 8 0 25 0;
#X connect 13 0 27 0;
#X connect 14 0 7 0;
#X connect 15 0 25 2;
#X connect 16 0 17 0;
#X connect 16 1 26 2;
#X connect 18 0 27 0;
#X connect 22 0 26 1;
#X connect 23 0 16 0;
#X connect 24 0 10 0;
#X connect 24 1 11 0;
#X connect 24 2 12 0;
#X connect 24 3 2 0;
#X connect 25 0 26 0;
#X connect 26 0 9 0;
#X connect 27 0 26 0;
#X restore 103 477 pd ease_list;
#X obj 840 423 s \$0-parentdollarzero;
#X obj 129 226 r \$0-parentdollarzero;
#X obj 747 458 t b b;
#X obj 747 478 f \$0;
#N canvas 1285 397 265 202 args 0;
#X obj 38 41 loadbang;
#X msg 38 61 args;
#X obj 38 81 pdcontrol;
#X obj 38 101 x/argsparse;
#X obj 100 121 x/sendkwarg \$0;
#X obj 38 150 s \$0-kwarg-id;
#X connect 0 0 1 0;
#X connect 1 0 2 0;
#X connect 2 0 3 0;
#X connect 3 0 5 0;
#X connect 3 1 4 0;
#X restore 766 57 pd args;
#X obj 479 340 r \$0-kwarg-noease;
#X msg 479 360 0;
#X obj 435 380 spigot 1;
#X obj 732 104 r \$0-kwarg-id;
#X text 985 719 Ben Wesch \, 2024;
#X obj 42 364 route recording list float target ping;
#X obj 253 638 text define \$0-recording;
#X msg 42 583 auto;
#X msg 77 583 line 0;
#X obj 42 619 text sequence \$0-recording -w 1;
#X obj 55 508 text fromlist \$0-recording;
#X obj 42 344 list trim;
#X msg 381 238 -1;
#X text 406 238 clear whole text;
#X msg 342 299 1e+15;
#X obj 320 219 realtime;
#X obj 320 189 t b b;
#X obj 301 169 t l b b;
#X obj 301 258 list prepend;
#X obj 342 278 loadbang;
#X obj 353 169 t b b;
#X obj 301 319 text set \$0-recording;
#X obj 381 258 text delete \$0-recording;
#X text 398 276 max position to append values, f 16;
#X msg 410 133 0;
#X obj 301 149 spigot;
#X msg 359 128 1;
#X obj 391 179 text tolist \$0-recording;
#X obj 391 199 list prepend recording;
#X msg 251 559 stop;
#X obj 391 108 t b b b;
#X text 65 265 send data to be saved in parent's [stash/hub] object, f 27;
#X obj 103 416 t a b b b;
#X obj 172 416 t a b b;
#X msg 251 579 0;
#X msg 220 579 1;
#X obj 42 563 t b b b;
#X obj 313 129 list;
#X obj 340 108 t b b b;
#X obj 301 108 t a a;
#X obj 63 61 t a a a;
#X obj 128 151 spigot 0;
#X obj 184 131 r \$0-kwarg-debug;
#X msg 184 151 1;
#X obj 656 57 r \$0-kwarg-DONE;
#X obj 820 164 symbol;
#X obj 703 655 symbol;
#X obj 703 387 t b s, f 6;
#X obj 747 387 t b s b;
#X obj 786 423 pack s s;
#X obj 111 131 symbol;
#X obj 144 107 r \$0-unique-id;
#N canvas 121 146 450 300 any2symbol 0;
#X obj 196 134 makefilename %i;
#X obj 144 114 route symbol float;
#X obj 144 161 outlet;
#X obj 144 94 inlet;
#X connect 0 0 2 0;
#X connect 1 0 2 0;
#X connect 1 1 0 0;
#X connect 3 0 1 0;
#X restore 820 204 pd any2symbol;
#X obj 815 654 symbol;
#X obj 128 193 print [stash];
#X obj 815 696 print [stash];
#X text 516 719 FIXME: send final id just once and avoid redundancy;
#X msg 128 172 id "\$1" assigned;
#X obj 747 627 t b b;
#X msg 815 675 id "\$1" already exists. reassigning...;
#X obj 296 84 route store record stop showid;
#N canvas 637 253 457 490 showid 0;
#X obj 55 42 inlet;
#X obj 54 426 s \$0-background;
#X obj 68 66 r \$0-unique-id;
#X obj 76 113 r \$0-kwarg-DONE;
#X obj 55 253 symbol;
#X obj 55 170 sel 1 0;
#X msg 74 222 label s \, label_pos 1 5;
#X obj 83 201 r \$0-kwarg-START;
#X obj 68 85 t b s;
#X obj 55 273 t a a;
#X obj 109 289 list fromsymbol;
#X obj 55 371 pack s f;
#X obj 109 310 list length;
#X obj 109 331 * -5;
#X obj 109 352 - 3;
#X msg 55 394 label \$1 \, label_pos \$2 5;
#X obj 55 150 f 0;
#X text 104 89 FIXME: clean up mess \, somehow control order?;
#X connect 0 0 16 0;
#X connect 2 0 8 0;
#X connect 3 0 16 0;
#X connect 4 0 9 0;
#X connect 5 0 4 0;
#X connect 5 1 6 0;
#X connect 6 0 1 0;
#X connect 7 0 6 0;
#X connect 8 0 16 0;
#X connect 8 1 4 1;
#X connect 9 0 11 0;
#X connect 9 1 10 0;
#X connect 10 0 12 0;
#X connect 11 0 15 0;
#X connect 12 0 13 0;
#X connect 13 0 14 0;
#X connect 14 0 11 1;
#X connect 15 0 1 0;
#X connect 16 0 5 0;
#X restore 442 108 pd showid;
#X obj 42 478 t b a;
#X obj 703 184 symbol;
#N canvas 121 146 450 300 any2symbol 0;
#X obj 196 134 makefilename %i;
#X obj 144 114 route symbol float;
#X obj 144 161 outlet;
#X obj 144 94 inlet;
#X connect 0 0 2 0;
#X connect 1 0 2 0;
#X connect 1 1 0 0;
#X connect 3 0 1 0;
#X restore 732 124 pd any2symbol;
#X obj 703 164 spigot 0;
#X obj 732 144 t s b;
#X msg 759 164 1;
#X text 813 242 restore id from savestate;
#N canvas 150 175 423 319 assign_id 0;
#X obj 162 42 inlet;
#X obj 162 186 random 1e+06;
#X obj 261 186 f 0;
#X obj 288 186 + 1;
#X obj 279 94 t b b;
#X obj 162 165 spigot 1;
#X obj 261 165 spigot 0;
#X msg 207 144 0;
#X msg 306 144 1;
#X text 29 161 random id to minimize conflicts (instead of counter), f 20;
#X obj 279 73 r \$0-kwarg-asc;
#X obj 162 227 makefilename %i;
#X obj 162 248 outlet;
#X obj 162 93 t a a;
#X connect 0 0 13 0;
#X connect 1 0 11 0;
#X connect 2 0 3 0;
#X connect 2 0 11 0;
#X connect 3 0 2 1;
#X connect 4 0 7 0;
#X connect 4 1 8 0;
#X connect 5 0 1 0;
#X connect 6 0 2 0;
#X connect 7 0 5 1;
#X connect 8 0 6 1;
#X connect 10 0 4 0;
#X connect 11 0 12 0;
#X connect 13 0 5 0;
#X connect 13 1 6 0;
#X restore 687 260 pd assign_id;
#X obj 694 240 r \$0-retry;
#X obj 784 240 list;
#X obj 820 224 list fromsymbol;
#X obj 841 281 list tosymbol;
#X obj 656 77 t a a a a a;
#X obj 928 309 r \$0-unique-id;
#X msg 928 329 0;
#X obj 703 345 spigot 1;
#X text 757 345 stop when uique id was found;
#X obj 853 143 r \$0-unique-id;
#X obj 703 365 t s s;
#X obj 784 260 route bang;
#X text 853 262 FIXME: better ways?;
#N canvas 92 135 340 270 manualparentdollarzero 0;
#X obj 97 104 makefilename %d;
#X obj 97 83 r \$0-kwarg-p;
#X obj 44 44 inlet;
#X obj 44 197 outlet;
#X obj 44 104 t b b;
#X obj 44 147 symbol;
#X obj 71 125 iemguts/canvasdollarzero 2;
#X connect 0 0 5 1;
#X connect 1 0 0 0;
#X connect 2 0 4 0;
#X connect 4 0 5 0;
#X connect 4 1 6 0;
#X connect 5 0 3 0;
#X connect 6 0 5 1;
#X restore 840 403 pd manualparentdollarzero;
#X obj 362 496 r \$0-kwarg-nogop;
#X obj 362 579 namecanvas \$0-patch;
#X obj 362 558 s \$0-patch;
#X msg 362 517 0;
#X msg 362 537 donecanvasdialog 1 -1 \$1 0 1 1 -1 8 16 50 50 \, dirty 0;
#X msg 393 517 2;
#X obj 251 599 s \$0-state-play;
#X obj 458 219 s \$0-state-record;
#X text 294 45 params from stash/hub to all stash objects;
#X text 87 316 messages from stash-hub to this specific stash instance, f 28;
#X connect 0 0 93 0;
#X connect 3 0 64 0;
#X connect 4 0 5 1;
#X connect 9 0 105 0;
#X connect 9 1 98 0;
#X connect 10 0 11 0;
#X connect 10 0 13 1;
#X connect 11 0 10 1;
#X connect 13 0 14 0;
#X connect 14 0 99 0;
#X connect 14 1 111 0;
#X connect 15 0 10 0;
#X connect 16 0 12 0;
#X connect 19 0 12 1;
#X connect 21 0 10 1;
#X connect 30 0 32 0;
#X connect 31 0 30 0;
#X connect 31 1 1 0;
#X connect 32 0 5 0;
#X connect 33 0 47 1;
#X connect 34 0 85 0;
#X connect 35 0 47 0;
#X connect 36 0 113 0;
#X connect 39 0 35 0;
#X connect 40 0 47 0;
#X connect 41 0 47 0;
#X connect 43 0 44 0;
#X connect 44 0 42 0;
#X connect 44 1 42 1;
#X connect 46 0 55 0;
#X connect 46 1 39 0;
#X connect 46 2 40 0;
#X connect 46 3 41 0;
#X connect 47 0 1 0;
#X connect 49 0 4 0;
#X connect 50 0 51 0;
#X connect 50 1 21 0;
#X connect 51 0 16 0;
#X connect 53 0 54 0;
#X connect 54 0 55 1;
#X connect 55 0 34 1;
#X connect 56 0 117 0;
#X connect 58 0 115 0;
#X connect 58 1 34 0;
#X connect 58 2 34 0;
#X connect 58 3 86 0;
#X connect 58 4 43 0;
#X connect 60 0 62 0;
#X connect 61 0 62 0;
#X connect 62 0 1 0;
#X connect 62 2 87 0;
#X connect 64 0 58 0;
#X connect 65 0 75 0;
#X connect 67 0 74 1;
#X connect 68 0 71 1;
#X connect 69 0 68 0;
#X connect 69 1 68 1;
#X connect 70 0 71 0;
#X connect 70 1 69 0;
#X connect 70 2 71 1;
#X connect 71 0 74 0;
#X connect 72 0 67 0;
#X connect 73 0 68 0;
#X connect 73 1 65 0;
#X connect 77 0 78 1;
#X connect 77 0 144 0;
#X connect 78 0 70 0;
#X connect 79 0 78 1;
#X connect 79 0 144 0;
#X connect 80 0 81 0;
#X connect 81 0 32 0;
#X connect 82 0 62 0;
#X connect 82 0 87 0;
#X connect 83 0 80 0;
#X connect 83 1 77 0;
#X connect 83 2 82 0;
#X connect 85 0 47 0;
#X connect 85 1 33 0;
#X connect 85 2 1 0;
#X connect 85 3 82 0;
#X connect 86 0 47 2;
#X connect 86 1 33 0;
#X connect 86 2 1 0;
#X connect 87 0 143 0;
#X connect 88 0 143 0;
#X connect 89 0 60 0;
#X connect 89 1 61 0;
#X connect 89 2 88 0;
#X connect 90 0 78 0;
#X connect 91 0 90 0;
#X connect 91 1 79 0;
#X connect 91 2 73 0;
#X connect 92 0 78 0;
#X connect 92 1 90 1;
#X connect 93 0 30 1;
#X connect 93 1 33 1;
#X connect 93 2 92 0;
#X connect 94 0 110 0;
#X connect 95 0 96 0;
#X connect 96 0 94 1;
#X connect 97 0 127 0;
#X connect 98 0 9 0;
#X connect 99 0 24 0;
#X connect 100 0 13 0;
#X connect 100 1 99 1;
#X connect 100 1 106 1;
#X connect 101 0 50 0;
#X connect 101 1 102 0;
#X connect 101 2 136 0;
#X connect 102 0 19 0;
#X connect 102 0 23 0;
#X connect 103 0 32 1;
#X connect 103 0 94 0;
#X connect 104 0 103 1;
#X connect 105 0 125 0;
#X connect 106 0 112 0;
#X connect 110 0 107 0;
#X connect 111 0 18 0;
#X connect 111 1 106 0;
#X connect 112 0 108 0;
#X connect 113 0 31 0;
#X connect 113 1 91 0;
#X connect 113 2 83 0;
#X connect 113 3 114 0;
#X connect 113 4 46 0;
#X connect 115 0 89 0;
#X connect 115 1 63 0;
#X connect 116 0 130 0;
#X connect 117 0 119 0;
#X connect 118 0 116 0;
#X connect 119 0 116 1;
#X connect 119 1 120 0;
#X connect 120 0 118 1;
#X connect 122 0 130 0;
#X connect 123 0 122 0;
#X connect 124 0 134 0;
#X connect 125 0 124 1;
#X connect 126 0 130 0;
#X connect 127 0 103 0;
#X connect 127 1 29 0;
#X connect 127 2 122 0;
#X connect 127 3 118 0;
#X connect 127 4 124 0;
#X connect 128 0 129 0;
#X connect 129 0 130 1;
#X connect 130 0 133 0;
#X connect 132 0 98 1;
#X connect 133 0 100 0;
#X connect 133 1 101 0;
#X connect 134 1 126 0;
#X connect 136 0 102 1;
#X connect 136 0 48 0;
#X connect 136 0 38 0;
#X connect 137 0 140 0;
#X connect 140 0 141 0;
#X connect 141 0 139 0;
#X connect 142 0 141 0;
#X coords 0 1 1 -1 8 16 2 50 50;
