#N canvas 269 136 1037 691 10;
#X obj 158 50 inlet;
#X obj 136 530 outlet;
#X obj 51 53 cnv 13 13 13 empty \$0-background p 5 6 0 8 #c7234d #ffffff 0;
#X obj 136 305 r \$0-r;
#X msg 227 228 symbol \$1-preset-insert;
#X obj 136 244 s;
#X text 160 248 send value to be saved in parent's [presets] object, f 25;
#X obj 867 373 cnv 16 16 16 empty empty empty 20 12 0 12 #ff0400 #404040 0;
#X obj 867 394 cnv 16 16 16 empty empty empty 20 12 0 12 #ff0400 #404040 0;
#X text 294 376 send callback;
#X obj 568 500 f;
#X obj 594 500 + 1;
#X obj 568 448 s;
#X obj 528 520 f, f 7;
#X obj 528 540 sel 1, f 7;
#X obj 568 479 r \$0-ping;
#X obj 568 373 f \$0;
#X msg 568 428 ping \$1-ping;
#X text 616 499 count received pings;
#X obj 619 581 s \$0-retry;
#X msg 600 373 symbol \$2-preset-\$1;
#X obj 528 581 f, f 5;
#X text 576 541 check if id was counted exactly once - otherwise retry;
#X msg 595 448 1;
#X obj 600 342 pack f s;
#X obj 568 407 t f b;
#X text 619 447 send ping with callback receiver message;
#N canvas 450 231 596 169 create_value_bridge 0;
#X obj 32 32 inlet;
#X obj 32 88 s pd-\$0-value-bridge;
#X msg 32 60 clear \, obj 60 60 r \$2-preset-\$1 \, obj 60 100 s \\\$0-r \, connect 0 0 1 0, f 71;
#X connect 0 0 2 0;
#X connect 2 0 1 0;
#X restore 728 394 pd create_value_bridge;
#X obj 206 154 r \$0-unique-id;
#N canvas 521 244 448 190 \$0-value-bridge 0;
#X restore 867 394 pd \$0-value-bridge;
#X text 869 412 dynamically generated receivers, f 19;
#X text 852 634 Ben Wesch \, 2023;
#X text 535 617 use approved unique id;
#X obj 528 305 t b f;
#X text 627 479 receive ping from any object with this id;
#N canvas 527 131 515 683 background 0;
#X obj 132 35 r \$0-unique-id;
#X obj 144 529 s \$0-background;
#X msg 144 270 0 1 2;
#X obj 144 319 shuffle;
#X obj 144 340 unpack f f f;
#N canvas 151 471 450 387 col 0;
#X obj 34 31 inlet;
#X obj 130 31 inlet;
#X obj 34 108 f;
#X obj 34 273 outlet;
#X obj 34 52 sel 1;
#X obj 62 108 - 1;
#X text 86 108 values of -1 or 1;
#X obj 62 128 t f b f;
#X obj 82 169 *;
#X obj 62 190 * 127;
#X obj 62 231 + 127;
#X text 70 53 0 \, 2 are mapped to around 0 \, 255;
#X obj 82 149 random 64;
#X obj 62 211 -;
#X obj 218 108 loadbang;
#X msg 218 128 seed 1;
#X connect 0 0 4 0;
#X connect 1 0 2 1;
#X connect 2 0 3 0;
#X connect 4 0 2 0;
#X connect 4 1 5 0;
#X connect 5 0 7 0;
#X connect 7 0 9 0;
#X connect 7 1 12 0;
#X connect 7 2 8 1;
#X connect 8 0 13 1;
#X connect 9 0 13 0;
#X connect 10 0 3 0;
#X connect 12 0 8 0;
#X connect 13 0 10 0;
#X connect 14 0 15 0;
#X connect 15 0 12 0;
#X restore 144 377 pd col;
#N canvas 149 470 451 383 col 0;
#X obj 34 31 inlet;
#X obj 130 31 inlet;
#X obj 34 108 f;
#X obj 34 273 outlet;
#X obj 34 52 sel 1;
#X obj 62 108 - 1;
#X text 86 108 values of -1 or 1;
#X obj 62 128 t f b f;
#X obj 82 169 *;
#X obj 62 190 * 127;
#X obj 62 231 + 127;
#X text 70 53 0 \, 2 are mapped to around 0 \, 255;
#X obj 82 149 random 64;
#X obj 62 211 -;
#X obj 218 108 loadbang;
#X msg 218 128 seed 1;
#X connect 0 0 4 0;
#X connect 1 0 2 1;
#X connect 2 0 3 0;
#X connect 4 0 2 0;
#X connect 4 1 5 0;
#X connect 5 0 7 0;
#X connect 7 0 9 0;
#X connect 7 1 12 0;
#X connect 7 2 8 1;
#X connect 8 0 13 1;
#X connect 9 0 13 0;
#X connect 10 0 3 0;
#X connect 12 0 8 0;
#X connect 13 0 10 0;
#X connect 14 0 15 0;
#X connect 15 0 12 0;
#X restore 187 377 pd col;
#N canvas 151 466 396 383 col 0;
#X obj 34 31 inlet;
#X obj 130 31 inlet;
#X obj 34 108 f;
#X obj 34 273 outlet;
#X obj 34 52 sel 1;
#X obj 62 108 - 1;
#X text 86 108 values of -1 or 1;
#X obj 62 128 t f b f;
#X obj 82 169 *;
#X obj 62 190 * 127;
#X obj 62 231 + 127;
#X text 70 53 0 \, 2 are mapped to around 0 \, 255;
#X obj 82 149 random 64;
#X obj 62 211 -;
#X obj 218 108 loadbang;
#X msg 218 128 seed 1;
#X connect 0 0 4 0;
#X connect 1 0 2 1;
#X connect 2 0 3 0;
#X connect 4 0 2 0;
#X connect 4 1 5 0;
#X connect 5 0 7 0;
#X connect 7 0 9 0;
#X connect 7 1 12 0;
#X connect 7 2 8 1;
#X connect 8 0 13 1;
#X connect 9 0 13 0;
#X connect 10 0 3 0;
#X connect 12 0 8 0;
#X connect 13 0 10 0;
#X connect 14 0 15 0;
#X connect 15 0 12 0;
#X restore 230 377 pd col;
#X msg 144 474 color \$1 #ffffff #ffffff;
#X obj 144 415 pack f f f;
#X obj 144 453 rgb2hex;
#X msg 264 319 seed \$1;
#X obj 144 229 t b b f;
#X obj 264 340 random 256;
#X msg 184 291 seed \$1;
#X obj 184 270 + 115249;
#X obj 184 249 / 3;
#X msg 45 81 args;
#X obj 45 101 pdcontrol;
#X obj 144 208 f;
#X obj 132 65 t b f;
#X obj 144 187 b;
#X obj 45 143 route black color;
#X obj 45 122 list trim;
#X msg 45 501 color #000000 #ffffff #eeeeee;
#X text 273 377 FIXME: redundancy;
#X connect 0 0 20 0;
#X connect 2 0 3 0;
#X connect 3 0 4 0;
#X connect 4 0 5 0;
#X connect 4 1 6 0;
#X connect 4 2 7 0;
#X connect 5 0 9 0;
#X connect 6 0 9 1;
#X connect 7 0 9 2;
#X connect 8 0 1 0;
#X connect 9 0 10 0;
#X connect 10 0 8 0;
#X connect 11 0 13 0;
#X connect 12 0 2 0;
#X connect 12 1 13 0;
#X connect 12 2 11 0;
#X connect 12 2 16 0;
#X connect 13 0 7 1;
#X connect 13 0 6 1;
#X connect 13 0 5 1;
#X connect 14 0 3 0;
#X connect 15 0 14 0;
#X connect 16 0 15 0;
#X connect 17 0 18 0;
#X connect 18 0 23 0;
#X connect 19 0 12 0;
#X connect 20 0 17 0;
#X connect 20 1 19 1;
#X connect 21 0 19 0;
#X connect 22 0 24 0;
#X connect 22 1 21 0;
#X connect 22 2 21 0;
#X connect 23 0 22 0;
#X connect 24 0 1 0;
#X restore 884 91 pd background;
#X obj 158 71 t l l, f 7;
#X obj 136 137 list;
#X obj 136 116 t b b, f 8;
#X obj 136 175 list prepend;
#X obj 170 463 list, f 5;
#X obj 136 397 list append 0;
#X msg 313 467 easemode \$1;
#X obj 655 342 s \$0-topdollarzero;
#X obj 227 207 r \$0-topdollarzero;
#X obj 231 50 r \$0-receive-preset-param;
#N canvas 517 464 450 192 \$0-param-bridge 0;
#X restore 867 373 pd \$0-param-bridge;
#N canvas 328 465 720 215 create_param_bridge 0;
#X obj 35 34 inlet;
#X text 71 34 furthest \$0;
#X msg 35 82 clear \, obj 60 60 r \$1-preset-param \, obj 60 100 s \\\$0-receive-preset-param \, connect 0 0 1 0, f 90;
#X obj 35 129 s pd-\$0-param-bridge;
#X connect 0 0 2 0;
#X connect 2 0 3 0;
#X restore 728 373 pd create_param_bridge;
#X obj 313 446 symbol;
#X msg 391 467 grain \$1;
#X msg 451 467 morph \$1;
#X obj 260 397 s;
#X obj 260 356 symbol;
#X obj 260 377 t b s;
#X obj 231 71 route store;
#X obj 182 514 b;
#X text 207 514 bang to catch values;
#X obj 295 305 route easetime easemode grain morph;
#X text 158 28 FIXME: store/restore from preset objects?;
#N canvas 121 158 728 512 ease_list 0;
#X obj 40 37 inlet;
#X obj 452 133 list length;
#X obj 362 117 t b l l;
#X obj 288 253 line_eased;
#X obj 452 154 - 1;
#X obj 382 175 list split, f 12;
#X obj 416 195 route float;
#X msg 196 237 easemode \$1;
#X obj 196 216 symbol;
#X msg 288 195 set 0 \, 1;
#X obj 196 319 edgefade;
#X obj 288 335 list_interpolate;
#X obj 288 378 outlet;
#X obj 40 117 s \$0-morph;
#X obj 108 117 s \$0-easemode;
#X obj 194 117 s \$0-grain;
#X obj 196 298 r \$0-morph;
#X obj 196 195 r \$0-easemode;
#X obj 416 237 r \$0-grain;
#X obj 286 117 t b l;
#X obj 286 138 s \$0-morphbang;
#X obj 196 278 r \$0-morphbang;
#X text 321 36 target;
#X text 366 100 direct list input;
#X text 213 36 set;
#X obj 239 37 inlet;
#X obj 286 37 inlet;
#X obj 40 79 route morph easemode grain, f 39;
#X connect 0 0 27 0;
#X connect 1 0 4 0;
#X connect 2 0 9 0;
#X connect 2 1 5 0;
#X connect 2 2 1 0;
#X connect 3 0 11 0;
#X connect 4 0 5 1;
#X connect 5 0 11 2;
#X connect 5 1 6 0;
#X connect 6 0 3 1;
#X connect 7 0 3 0;
#X connect 8 0 7 0;
#X connect 9 0 3 0;
#X connect 10 0 11 0;
#X connect 11 0 12 0;
#X connect 16 0 10 0;
#X connect 17 0 8 0;
#X connect 18 0 3 2;
#X connect 19 0 20 0;
#X connect 19 1 11 2;
#X connect 21 0 10 0;
#X connect 25 0 11 1;
#X connect 26 0 19 0;
#X connect 27 0 13 0;
#X connect 27 1 14 0;
#X connect 27 2 15 0;
#X connect 27 3 2 0;
#X restore 136 483 pd ease_list;
#X obj 219 418 t l b b;
#X obj 72 50 inlet;
#X obj 86 598 outlet;
#X obj 482 150 route float bang;
#X obj 528 602 s \$0-unique-id;
#X text 584 148 assign id on creation;
#X obj 568 305 t b f b;
#X obj 655 321 iemguts/canvasdollarzero 2;
#X obj 136 326 route list float target ping;
#X text 819 320 \$0 of grandparent;
#X obj 136 418 t l b b;
#X obj 218 175 print child preset id;
#X obj 442 184 print float;
#X obj 568 561 b;
#X obj 568 581 f;
#X obj 594 581 + 1;
#X obj 528 284 t f f f;
#X obj 528 184 f 0;
#X obj 560 178 r \$0-retry;
#X text 539 28 FIXME: currently not tested. update based on stash changes and add help/example (see node network stuff). object is intended for use in other abstractions that should remember preset states;
#X connect 0 0 36 0;
#X connect 3 0 68 0;
#X connect 4 0 5 1;
#X connect 10 0 11 0;
#X connect 10 0 13 1;
#X connect 11 0 10 1;
#X connect 13 0 14 0;
#X connect 14 0 21 0;
#X connect 14 1 73 0;
#X connect 15 0 10 0;
#X connect 16 0 25 0;
#X connect 17 0 12 0;
#X connect 20 0 12 1;
#X connect 21 0 62 0;
#X connect 21 0 64 0;
#X connect 23 0 10 1;
#X connect 24 0 20 0;
#X connect 24 0 27 0;
#X connect 25 0 17 0;
#X connect 25 1 23 0;
#X connect 28 0 39 1;
#X connect 28 0 71 0;
#X connect 33 0 13 0;
#X connect 33 1 21 1;
#X connect 36 0 37 1;
#X connect 36 1 40 1;
#X connect 37 0 39 0;
#X connect 38 0 37 0;
#X connect 38 1 55 0;
#X connect 39 0 5 0;
#X connect 40 0 59 1;
#X connect 41 0 70 0;
#X connect 42 0 59 0;
#X connect 44 0 4 0;
#X connect 45 0 54 0;
#X connect 48 0 42 0;
#X connect 49 0 59 0;
#X connect 50 0 59 0;
#X connect 52 0 53 0;
#X connect 53 0 51 0;
#X connect 53 1 51 1;
#X connect 54 0 38 0;
#X connect 54 1 57 0;
#X connect 55 0 1 0;
#X connect 57 0 41 1;
#X connect 57 1 48 0;
#X connect 57 2 49 0;
#X connect 57 3 50 0;
#X connect 59 0 1 0;
#X connect 60 0 59 2;
#X connect 60 1 40 0;
#X connect 60 2 1 0;
#X connect 61 0 63 0;
#X connect 63 0 76 0;
#X connect 63 1 72 0;
#X connect 63 1 77 0;
#X connect 66 0 16 0;
#X connect 66 1 24 0;
#X connect 66 2 67 0;
#X connect 67 0 24 1;
#X connect 67 0 47 0;
#X connect 67 0 43 0;
#X connect 68 0 41 0;
#X connect 68 1 41 0;
#X connect 68 2 60 0;
#X connect 68 3 52 0;
#X connect 70 0 59 0;
#X connect 70 1 40 0;
#X connect 70 2 1 0;
#X connect 73 0 74 0;
#X connect 74 0 75 0;
#X connect 75 0 19 0;
#X connect 76 0 33 0;
#X connect 76 1 66 0;
#X connect 76 2 74 1;
#X connect 77 0 76 0;
#X connect 78 0 77 0;
#X coords 0 -1 1 1 15 19 2 50 50;
