#N canvas 231 120 1043 794 12;
#X obj 75 50 inlet;
#X obj 50 608 outlet;
#X obj 51 53 cnv 6 6 13 empty \$0-background s 1 8 0 8 #eeeeee #000000 0;
#X obj 50 347 r \$0-r;
#X msg 156 257 symbol \$1-preset-insert;
#X obj 50 276 s;
#X obj 861 190 cnv 19 19 19 empty empty empty 20 12 0 12 #ff0400 #404040 0;
#X obj 861 214 cnv 19 19 19 empty empty empty 20 12 0 12 #ff0400 #404040 0;
#X text 255 429 send callback;
#X obj 506 136 spigot 1;
#X obj 520 292 savestate;
#X msg 559 112 0;
#X obj 552 573 f;
#X obj 582 573 + 1;
#X obj 552 513 s;
#X obj 506 596 f, f 7;
#X obj 506 620 sel 1, f 7;
#X obj 552 549 r \$0-ping;
#X msg 552 489 ping \$1-ping;
#X text 608 572 count received pings;
#X obj 552 668 s \$0-retry;
#X obj 506 50 loadbang;
#X msg 599 426 symbol \$2-preset-\$1;
#X obj 506 668 f, f 5;
#X text 562 621 check if id was counted exactly once - otherwise retry;
#X msg 584 513 1;
#X obj 513 190 r \$0-retry;
#X obj 520 268 f;
#X obj 552 644 t b;
#X obj 599 389 pack f s;
#X text 612 512 send ping with callback receiver message;
#N canvas 450 231 596 169 create_value_bridge 0;
#X obj 37 37 inlet;
#X obj 37 102 s pd-\$0-value-bridge;
#X msg 37 70 clear \, obj 60 60 r \$2-preset-\$1 \, obj 60 100 s \\\$0-r \, connect 0 0 1 0, f 71;
#X connect 0 0 2 0;
#X connect 2 0 1 0;
#X restore 748 450 pd create_value_bridge;
#X obj 559 88 r \$0-unique-id;
#X obj 506 730 s \$0-unique-id;
#X obj 131 171 r \$0-unique-id;
#N canvas 521 244 447 190 \$0-value-bridge 0;
#X obj 60 60 r 1015-preset-417922;
#X obj 60 100 s \$0-r;
#X connect 0 0 1 0;
#X restore 861 214 pd \$0-value-bridge;
#X text 770 238 dynamically generated receivers;
#X text 569 135 self-assign id on creation;
#X text 514 710 use approved unique id;
#X obj 506 346 t b f;
#X text 621 549 receive ping from any object with this id;
#X text 549 238 use and save received id;
#N canvas 982 246 622 627 background 0;
#X obj 168 539 s \$0-background;
#X msg 168 238 0 1 2;
#X obj 168 319 unpack f f f;
#N canvas 151 471 450 387 col 0;
#X obj 40 36 inlet;
#X obj 151 36 inlet;
#X obj 40 125 f;
#X obj 40 317 outlet;
#X obj 40 61 sel 1;
#X obj 72 125 - 1;
#X text 100 126 values of -1 or 1;
#X obj 72 149 t f b f;
#X obj 95 197 *;
#X obj 72 221 * 127;
#X obj 72 269 + 127;
#X text 81 62 0 \, 2 are mapped to around 0 \, 255;
#X obj 95 173 random 64;
#X obj 72 245 -;
#X obj 253 125 loadbang;
#X msg 253 149 seed 1;
#X connect 0 0 4 0;
#X connect 1 0 2 1;
#X connect 2 0 3 0;
#X connect 4 0 2 0;
#X connect 4 1 5 0;
#X connect 5 0 7 0;
#X connect 7 0 9 0;
#X connect 7 1 12 0;
#X connect 7 2 8 1;
#X connect 8 0 13 1;
#X connect 9 0 13 0;
#X connect 10 0 3 0;
#X connect 12 0 8 0;
#X connect 13 0 10 0;
#X connect 14 0 15 0;
#X connect 15 0 12 0;
#X restore 168 362 pd col;
#N canvas 149 470 451 383 col 0;
#X obj 40 36 inlet;
#X obj 151 36 inlet;
#X obj 40 125 f;
#X obj 40 317 outlet;
#X obj 40 61 sel 1;
#X obj 72 125 - 1;
#X text 100 126 values of -1 or 1;
#X obj 72 149 t f b f;
#X obj 95 197 *;
#X obj 72 221 * 127;
#X obj 72 269 + 127;
#X text 81 62 0 \, 2 are mapped to around 0 \, 255;
#X obj 95 173 random 64;
#X obj 72 245 -;
#X obj 253 125 loadbang;
#X msg 253 149 seed 1;
#X connect 0 0 4 0;
#X connect 1 0 2 1;
#X connect 2 0 3 0;
#X connect 4 0 2 0;
#X connect 4 1 5 0;
#X connect 5 0 7 0;
#X connect 7 0 9 0;
#X connect 7 1 12 0;
#X connect 7 2 8 1;
#X connect 8 0 13 1;
#X connect 9 0 13 0;
#X connect 10 0 3 0;
#X connect 12 0 8 0;
#X connect 13 0 10 0;
#X connect 14 0 15 0;
#X connect 15 0 12 0;
#X restore 218 362 pd col;
#N canvas 151 466 396 383 col 0;
#X obj 40 36 inlet;
#X obj 151 36 inlet;
#X obj 40 125 f;
#X obj 40 317 outlet;
#X obj 40 61 sel 1;
#X obj 72 125 - 1;
#X text 100 126 values of -1 or 1;
#X obj 72 149 t f b f;
#X obj 95 197 *;
#X obj 72 221 * 127;
#X obj 72 269 + 127;
#X text 81 62 0 \, 2 are mapped to around 0 \, 255;
#X obj 95 173 random 64;
#X obj 72 245 -;
#X obj 253 125 loadbang;
#X msg 253 149 seed 1;
#X connect 0 0 4 0;
#X connect 1 0 2 1;
#X connect 2 0 3 0;
#X connect 4 0 2 0;
#X connect 4 1 5 0;
#X connect 5 0 7 0;
#X connect 7 0 9 0;
#X connect 7 1 12 0;
#X connect 7 2 8 1;
#X connect 8 0 13 1;
#X connect 9 0 13 0;
#X connect 10 0 3 0;
#X connect 12 0 8 0;
#X connect 13 0 10 0;
#X connect 14 0 15 0;
#X connect 15 0 12 0;
#X restore 268 362 pd col;
#X msg 168 475 color \$1 #ffffff #ffffff;
#X obj 168 406 pack f f f;
#X msg 307 295 seed \$1;
#X obj 168 190 t b b f;
#X obj 307 319 random 256;
#X msg 214 262 seed \$1;
#X obj 214 238 + 115249;
#X obj 214 214 / 3;
#X obj 168 166 f;
#X obj 168 142 b;
#X msg 52 506 color #000000 #ffffff #eeeeee;
#X text 317 362 FIXME: redundancy;
#X obj 358 451 r \$0-kwarg-START;
#X obj 198 142 r \$0-unique-id;
#X obj 52 42 r \$0-kwarg-color;
#X obj 52 90 route black bang;
#X obj 52 66 list trim;
#X obj 172 42 r \$0-kwarg-black;
#X msg 358 475 color #eeeeee #ffffff #000000;
#X obj 168 295 x/shuffle;
#X obj 168 451 x/rgb2hex;
#X connect 1 0 25 0;
#X connect 2 0 3 0;
#X connect 2 1 4 0;
#X connect 2 2 5 0;
#X connect 3 0 7 0;
#X connect 4 0 7 1;
#X connect 5 0 7 2;
#X connect 6 0 0 0;
#X connect 7 0 26 0;
#X connect 8 0 10 0;
#X connect 9 0 1 0;
#X connect 9 1 10 0;
#X connect 9 2 8 0;
#X connect 9 2 13 0;
#X connect 10 0 5 1;
#X connect 10 0 4 1;
#X connect 10 0 3 1;
#X connect 11 0 25 0;
#X connect 12 0 11 0;
#X connect 13 0 12 0;
#X connect 14 0 9 0;
#X connect 15 0 14 0;
#X connect 16 0 0 0;
#X connect 18 0 24 0;
#X connect 19 0 14 1;
#X connect 20 0 22 0;
#X connect 21 0 16 0;
#X connect 21 1 15 0;
#X connect 22 0 21 0;
#X connect 23 0 16 0;
#X connect 24 0 0 0;
#X connect 25 0 2 0;
#X connect 26 0 6 0;
#X restore 896 114 pd background;
#X obj 506 214 random 1e+06;
#X text 600 187 random id to minimize conflicts (instead of counter), f 20;
#X obj 75 74 t l l, f 7;
#X obj 50 151 list;
#X obj 50 127 t b b, f 8;
#X obj 50 195 list prepend;
#X obj 89 530 list, f 5;
#X obj 50 454 list append 0;
#X msg 256 535 easemode \$1;
#X obj 161 50 r \$0-receive-preset-param;
#N canvas 521 244 450 266 \$0-param-bridge 0;
#X obj 60 60 r 1015-preset-param;
#X obj 60 100 s \$0-receive-preset-param;
#X connect 0 0 1 0;
#X restore 861 190 pd \$0-param-bridge;
#N canvas 328 465 720 215 create_param_bridge 0;
#X obj 41 39 inlet;
#X text 83 40 furthest \$0;
#X msg 41 95 clear \, obj 60 60 r \$1-preset-param \, obj 60 100 s \\\$0-receive-preset-param \, connect 0 0 1 0, f 90;
#X obj 41 150 s pd-\$0-param-bridge;
#X connect 0 0 2 0;
#X connect 2 0 3 0;
#X restore 748 426 pd create_param_bridge;
#X obj 256 511 symbol;
#X msg 346 535 grain \$1;
#X msg 416 535 morph \$1;
#X obj 50 371 route list float target ping, f 32;
#X obj 215 454 s;
#X obj 215 406 symbol;
#X obj 215 430 t b s;
#X obj 161 74 route store;
#X obj 103 589 b;
#X text 132 590 bang to catch values;
#X obj 235 347 route easetime easemode grain morph;
#N canvas 121 158 728 512 ease_list 0;
#X obj 46 43 inlet;
#X obj 525 155 list length;
#X obj 421 136 t b l l;
#X obj 525 179 - 1;
#X obj 444 203 list split, f 12;
#X obj 484 227 route float;
#X msg 228 275 easemode \$1;
#X obj 228 251 symbol;
#X msg 335 227 set 0 \, 1;
#X obj 335 439 outlet;
#X obj 46 136 s \$0-morph;
#X obj 126 136 s \$0-easemode;
#X obj 226 136 s \$0-grain;
#X obj 228 347 r \$0-morph;
#X obj 228 227 r \$0-easemode;
#X obj 484 275 r \$0-grain;
#X obj 332 136 t b l;
#X obj 332 160 s \$0-morphbang;
#X obj 228 323 r \$0-morphbang;
#X text 373 42 target;
#X text 426 117 direct list input;
#X text 248 42 set;
#X obj 278 43 inlet;
#X obj 332 43 inlet;
#X obj 46 92 route morph easemode grain, f 39;
#X obj 335 294 x/line_eased;
#X obj 335 390 x/list_interpolate;
#X obj 228 371 x/edgefade;
#X connect 0 0 24 0;
#X connect 1 0 3 0;
#X connect 2 0 8 0;
#X connect 2 1 4 0;
#X connect 2 2 1 0;
#X connect 3 0 4 1;
#X connect 4 0 26 2;
#X connect 4 1 5 0;
#X connect 5 0 25 1;
#X connect 6 0 25 0;
#X connect 7 0 6 0;
#X connect 8 0 25 0;
#X connect 13 0 27 0;
#X connect 14 0 7 0;
#X connect 15 0 25 2;
#X connect 16 0 17 0;
#X connect 16 1 26 2;
#X connect 18 0 27 0;
#X connect 22 0 26 1;
#X connect 23 0 16 0;
#X connect 24 0 10 0;
#X connect 24 1 11 0;
#X connect 24 2 12 0;
#X connect 24 3 2 0;
#X connect 25 0 26 0;
#X connect 26 0 9 0;
#X connect 27 0 26 0;
#X restore 50 554 pd ease_list;
#X obj 160 478 t l b b;
#X obj 552 346 t b f b b;
#X obj 506 322 t f f f;
#X obj 506 238 t f f;
#X obj 664 365 iemguts/canvasdollarzero 1;
#X obj 664 389 s \$0-parentdollarzero;
#X obj 156 233 r \$0-parentdollarzero;
#X obj 552 441 t b b;
#X obj 552 465 f \$0;
#N canvas 1285 397 318 418 args 0;
#X obj 46 98 loadbang;
#X msg 46 122 args;
#X obj 46 146 pdcontrol;
#X obj 46 229 route float;
#X obj 46 253 s \$0-manual-id;
#X obj 46 170 x/argsparse;
#X obj 120 194 x/sendkwarg \$0;
#X connect 0 0 1 0;
#X connect 1 0 2 0;
#X connect 2 0 5 0;
#X connect 3 0 4 0;
#X connect 5 0 3 0;
#X connect 5 1 6 0;
#X restore 938 138 pd args;
#X obj 191 323 r \$0-kwarg-noease;
#X msg 191 347 0;
#X obj 138 430 spigot 1;
#X obj 50 478 t l b b;
#X obj 399 214 r \$0-manual-id;
#X obj 399 190 r \$0-kwarg-id;
#X text 727 25 args:;
#X text 727 45 float or '-id' kwarg for manual id;
#X text 727 65 '-color' to color by id;
#X text 727 85 '-black' or '-color black' for black;
#X text 78 280 send value to be saved in parent's [stash/hub] object, f 27;
#X obj 150 195 print [stash] id;
#X text 270 195 FIXME: connect?;
#X text 883 729 Ben Wesch \, 2024;
#X connect 0 0 45 0;
#X connect 3 0 58 0;
#X connect 4 0 5 1;
#X connect 9 0 43 0;
#X connect 10 0 69 0;
#X connect 10 1 27 0;
#X connect 11 0 9 1;
#X connect 12 0 13 0;
#X connect 12 0 15 1;
#X connect 13 0 12 1;
#X connect 15 0 16 0;
#X connect 16 0 23 0;
#X connect 16 1 28 0;
#X connect 17 0 12 0;
#X connect 18 0 14 0;
#X connect 21 0 9 0;
#X connect 22 0 14 1;
#X connect 23 0 33 0;
#X connect 25 0 12 1;
#X connect 26 0 43 0;
#X connect 27 0 10 0;
#X connect 28 0 20 0;
#X connect 29 0 22 0;
#X connect 29 0 31 0;
#X connect 32 0 11 0;
#X connect 34 0 48 1;
#X connect 39 0 15 0;
#X connect 39 1 23 1;
#X connect 43 0 70 0;
#X connect 45 0 46 1;
#X connect 45 1 49 1;
#X connect 46 0 48 0;
#X connect 47 0 46 0;
#X connect 47 1 63 0;
#X connect 48 0 5 0;
#X connect 49 0 66 1;
#X connect 50 0 80 0;
#X connect 51 0 66 0;
#X connect 52 0 62 0;
#X connect 55 0 51 0;
#X connect 56 0 66 0;
#X connect 57 0 66 0;
#X connect 58 0 50 0;
#X connect 58 1 50 0;
#X connect 58 2 67 0;
#X connect 58 3 60 0;
#X connect 60 0 61 0;
#X connect 61 0 59 0;
#X connect 61 1 59 1;
#X connect 62 0 47 0;
#X connect 62 1 65 0;
#X connect 63 0 1 0;
#X connect 65 0 79 0;
#X connect 65 1 55 0;
#X connect 65 2 56 0;
#X connect 65 3 57 0;
#X connect 66 0 1 0;
#X connect 67 0 66 2;
#X connect 67 1 49 0;
#X connect 67 2 1 0;
#X connect 68 0 74 0;
#X connect 68 1 29 0;
#X connect 68 2 71 0;
#X connect 69 0 39 0;
#X connect 69 1 68 0;
#X connect 69 2 27 1;
#X connect 70 0 69 0;
#X connect 70 1 27 1;
#X connect 71 0 29 1;
#X connect 71 0 54 0;
#X connect 71 0 72 0;
#X connect 73 0 4 0;
#X connect 74 0 75 0;
#X connect 74 1 25 0;
#X connect 75 0 18 0;
#X connect 77 0 78 0;
#X connect 78 0 79 1;
#X connect 79 0 50 1;
#X connect 80 0 66 0;
#X connect 80 1 49 0;
#X connect 80 2 1 0;
#X connect 81 0 70 0;
#X connect 82 0 70 0;
#X coords 0 -1 1 1 8 19 2 50 50;
