#N canvas 246 72 1152 709 10;
#X obj 63 41 inlet;
#X obj 87 653 outlet;
#X obj 51 53 cnv 6 6 10 empty \$0-background s 1 5 0 8 #ffffff #000000 0;
#X obj 42 324 r \$0-r;
#X msg 129 246 symbol \$1-preset-insert;
#X obj 42 262 s;
#X obj 996 156 cnv 16 16 16 empty empty empty 20 12 0 12 #ff0400 #404040 0;
#X obj 996 176 cnv 16 16 16 empty empty empty 20 12 0 12 #ff0400 #404040 0;
#X text 257 435 send callback;
#X obj 701 125 spigot 1;
#X obj 713 242 savestate;
#X msg 745 105 0;
#X obj 739 475 f;
#X obj 764 475 + 1;
#X obj 739 426 s;
#X obj 701 495 f, f 7;
#X obj 701 515 sel 1, f 7;
#X obj 739 455 r \$0-ping;
#X msg 739 406 ping \$1-ping;
#X text 786 474 count received pings;
#X obj 739 555 s \$0-retry;
#X obj 701 42 loadbang;
#X msg 778 354 symbol \$2-preset-\$1;
#X obj 701 555 f, f 5;
#X text 747 515 check if id was counted exactly once - otherwise retry;
#X msg 766 426 1;
#X obj 707 158 r \$0-retry;
#X obj 713 222 f;
#X obj 739 535 t b;
#X obj 778 323 pack f s;
#X text 789 425 send ping with callback receiver message;
#N canvas 450 231 596 169 create_value_bridge 0;
#X obj 31 31 inlet;
#X obj 31 85 s pd-\$0-value-bridge;
#X msg 31 58 clear \, obj 60 60 r \$2-preset-\$1 \, obj 60 100 s \\\$0-r \, connect 0 0 1 0, f 71;
#X connect 0 0 2 0;
#X connect 2 0 1 0;
#X restore 902 374 pd create_value_bridge;
#X obj 745 85 r \$0-unique-id;
#X obj 701 608 s \$0-unique-id;
#X obj 111 137 r \$0-unique-id;
#N canvas 521 244 447 190 \$0-value-bridge 0;
#X restore 996 176 pd \$0-value-bridge;
#X text 920 195 dynamically generated receivers;
#X text 753 124 self-assign id on creation;
#X text 708 589 use approved unique id;
#X obj 701 287 t b f;
#X text 796 455 receive ping from any object with this id;
#X text 737 197 use and save received id;
#N canvas 982 246 679 571 background 0;
#X obj 139 517 s \$0-background;
#X msg 139 198 0 1 2;
#X obj 139 265 unpack f f f;
#N canvas 151 471 450 387 col 0;
#X obj 33 30 inlet;
#X obj 125 30 inlet;
#X obj 33 104 f;
#X obj 33 263 outlet;
#X obj 33 51 sel 1;
#X obj 60 104 - 1;
#X text 83 104 values of -1 or 1;
#X obj 60 124 t f b f;
#X obj 79 164 *;
#X obj 60 183 * 127;
#X obj 60 223 + 127;
#X text 67 51 0 \, 2 are mapped to around 0 \, 255;
#X obj 79 144 random 64;
#X obj 60 203 -;
#X obj 210 104 loadbang;
#X msg 210 124 seed 1;
#X connect 0 0 4 0;
#X connect 1 0 2 1;
#X connect 2 0 3 0;
#X connect 4 0 2 0;
#X connect 4 1 5 0;
#X connect 5 0 7 0;
#X connect 7 0 9 0;
#X connect 7 1 12 0;
#X connect 7 2 8 1;
#X connect 8 0 13 1;
#X connect 9 0 13 0;
#X connect 10 0 3 0;
#X connect 12 0 8 0;
#X connect 13 0 10 0;
#X connect 14 0 15 0;
#X connect 15 0 12 0;
#X restore 139 300 pd col;
#N canvas 149 470 451 383 col 0;
#X obj 33 30 inlet;
#X obj 125 30 inlet;
#X obj 33 104 f;
#X obj 33 263 outlet;
#X obj 33 51 sel 1;
#X obj 60 104 - 1;
#X text 83 104 values of -1 or 1;
#X obj 60 124 t f b f;
#X obj 79 164 *;
#X obj 60 183 * 127;
#X obj 60 223 + 127;
#X text 67 51 0 \, 2 are mapped to around 0 \, 255;
#X obj 79 144 random 64;
#X obj 60 203 -;
#X obj 210 104 loadbang;
#X msg 210 124 seed 1;
#X connect 0 0 4 0;
#X connect 1 0 2 1;
#X connect 2 0 3 0;
#X connect 4 0 2 0;
#X connect 4 1 5 0;
#X connect 5 0 7 0;
#X connect 7 0 9 0;
#X connect 7 1 12 0;
#X connect 7 2 8 1;
#X connect 8 0 13 1;
#X connect 9 0 13 0;
#X connect 10 0 3 0;
#X connect 12 0 8 0;
#X connect 13 0 10 0;
#X connect 14 0 15 0;
#X connect 15 0 12 0;
#X restore 181 300 pd col;
#N canvas 151 466 396 383 col 0;
#X obj 33 30 inlet;
#X obj 125 30 inlet;
#X obj 33 104 f;
#X obj 33 263 outlet;
#X obj 33 51 sel 1;
#X obj 60 104 - 1;
#X text 83 104 values of -1 or 1;
#X obj 60 124 t f b f;
#X obj 79 164 *;
#X obj 60 183 * 127;
#X obj 60 223 + 127;
#X text 67 51 0 \, 2 are mapped to around 0 \, 255;
#X obj 79 144 random 64;
#X obj 60 203 -;
#X obj 210 104 loadbang;
#X msg 210 124 seed 1;
#X connect 0 0 4 0;
#X connect 1 0 2 1;
#X connect 2 0 3 0;
#X connect 4 0 2 0;
#X connect 4 1 5 0;
#X connect 5 0 7 0;
#X connect 7 0 9 0;
#X connect 7 1 12 0;
#X connect 7 2 8 1;
#X connect 8 0 13 1;
#X connect 9 0 13 0;
#X connect 10 0 3 0;
#X connect 12 0 8 0;
#X connect 13 0 10 0;
#X connect 14 0 15 0;
#X connect 15 0 12 0;
#X restore 222 300 pd col;
#X msg 139 394 color \$1 #ffffff #ffffff;
#X obj 139 337 pack f f f;
#X msg 255 245 seed \$1;
#X obj 139 158 t b b f;
#X obj 255 265 random 256;
#X msg 178 217 seed \$1;
#X obj 178 198 + 115249;
#X obj 178 178 / 3;
#X obj 139 138 f;
#X obj 139 118 b;
#X text 263 300 FIXME: redundancy;
#X obj 211 347 r \$0-kwarg-START;
#X obj 164 118 r \$0-unique-id;
#X obj 43 35 r \$0-kwarg-color;
#X obj 43 75 route black bang;
#X obj 43 55 list trim;
#X obj 14 126 r \$0-kwarg-black;
#X obj 139 245 x/shuffle;
#X obj 139 374 x/rgb2hex;
#X msg 211 367 color #ffffff #ffffff #000000;
#X obj 145 472 list;
#X obj 145 493 list trim;
#X obj 409 258 f;
#X obj 409 279 cos;
#X obj 390 215 sel 0;
#X obj 528 258 f;
#X obj 528 279 cos;
#X obj 390 140 r \$0-record;
#X obj 509 140 r \$0-play;
#X obj 528 237 metro 40;
#X obj 409 237 metro 40;
#X obj 139 451 t a a;
#X obj 390 161 t f f b;
#X obj 509 161 t f f b;
#X msg 548 216 0;
#X msg 429 215 0;
#X obj 409 421 x/byte2hex;
#X obj 528 421 x/byte2hex;
#X obj 528 442 pack s 0;
#X obj 409 442 pack s 0;
#X msg 409 463 color #\$1\$2\$2\$2\$2 #000000 #ffffff, f 17;
#X msg 528 463 color #\$2\$2\$1\$2\$2 #000000 #ffffff, f 17;
#X obj 409 381 clip 0 255;
#X obj 528 381 clip 0 255;
#X obj 435 258 + 0.2;
#X obj 554 258 + 0.2;
#X obj 409 340 * 255;
#X obj 528 340 * 255;
#X obj 409 299 * 0.3;
#X obj 409 319 + 0.8;
#X obj 528 319 + 0.8;
#X obj 528 299 * 0.3;
#X msg 43 420 color \$1 #ffffff #ffffff;
#X msg 43 156 symbol #000000;
#X obj 136 95 symbol;
#X connect 1 0 23 0;
#X connect 2 0 3 0;
#X connect 2 1 4 0;
#X connect 2 2 5 0;
#X connect 3 0 7 0;
#X connect 4 0 7 1;
#X connect 5 0 7 2;
#X connect 6 0 37 0;
#X connect 7 0 24 0;
#X connect 8 0 10 0;
#X connect 9 0 1 0;
#X connect 9 1 10 0;
#X connect 9 2 8 0;
#X connect 9 2 13 0;
#X connect 10 0 5 1;
#X connect 10 0 4 1;
#X connect 10 0 3 1;
#X connect 11 0 23 0;
#X connect 12 0 11 0;
#X connect 13 0 12 0;
#X connect 14 0 9 0;
#X connect 15 0 14 0;
#X connect 17 0 25 0;
#X connect 18 0 14 1;
#X connect 19 0 21 0;
#X connect 20 0 59 0;
#X connect 20 1 15 0;
#X connect 20 2 60 0;
#X connect 21 0 20 0;
#X connect 22 0 59 0;
#X connect 23 0 2 0;
#X connect 24 0 6 0;
#X connect 25 0 37 0;
#X connect 26 0 27 0;
#X connect 27 0 0 0;
#X connect 28 0 29 0;
#X connect 28 0 50 0;
#X connect 29 0 54 0;
#X connect 30 0 26 0;
#X connect 31 0 32 0;
#X connect 31 0 51 0;
#X connect 32 0 57 0;
#X connect 33 0 38 0;
#X connect 34 0 39 0;
#X connect 35 0 31 0;
#X connect 36 0 28 0;
#X connect 37 0 0 0;
#X connect 37 1 26 1;
#X connect 38 0 30 0;
#X connect 38 1 36 0;
#X connect 38 2 41 0;
#X connect 39 0 30 0;
#X connect 39 1 35 0;
#X connect 39 2 40 0;
#X connect 40 0 31 1;
#X connect 41 0 28 1;
#X connect 42 0 45 0;
#X connect 43 0 44 0;
#X connect 44 0 47 0;
#X connect 45 0 46 0;
#X connect 46 0 0 0;
#X connect 47 0 0 0;
#X connect 48 0 42 0;
#X connect 49 0 43 0;
#X connect 50 0 28 1;
#X connect 51 0 31 1;
#X connect 52 0 48 0;
#X connect 53 0 49 0;
#X connect 54 0 55 0;
#X connect 55 0 52 0;
#X connect 56 0 53 0;
#X connect 57 0 56 0;
#X connect 58 0 37 0;
#X connect 59 0 58 0;
#X connect 60 0 58 0;
#X restore 135 41 pd background;
#X text 779 155 random id to minimize conflicts (instead of counter), f 20;
#X obj 42 120 list;
#X obj 42 100 t b b, f 8;
#X obj 42 215 list prepend;
#X obj 122 451 list, f 5;
#X obj 105 396 list append 0;
#X msg 477 461 easemode \$1;
#X obj 324 64 r \$0-receive-preset-param;
#N canvas 521 244 450 266 \$0-param-bridge 0;
#X restore 996 156 pd \$0-param-bridge;
#N canvas 328 465 720 215 create_param_bridge 0;
#X obj 34 32 inlet;
#X text 69 33 furthest \$0;
#X msg 34 79 clear \, obj 60 60 r \$1-preset-param \, obj 60 100 s \\\$0-receive-preset-param \, connect 0 0 1 0, f 90;
#X obj 34 125 s pd-\$0-param-bridge;
#X connect 0 0 2 0;
#X connect 2 0 3 0;
#X restore 902 354 pd create_param_bridge;
#X obj 477 441 symbol;
#X msg 555 461 grain \$1;
#X msg 614 461 morph \$1;
#X obj 224 456 s;
#X obj 224 416 symbol;
#X obj 224 436 t b s;
#X text 91 117 bang to catch values;
#X obj 459 319 route easetime easemode grain morph;
#N canvas 121 158 728 512 ease_list 0;
#X obj 38 36 inlet;
#X obj 436 129 list length;
#X obj 349 113 t b l l;
#X obj 436 149 - 1;
#X obj 369 168 list split, f 12;
#X obj 402 188 route float;
#X msg 189 228 easemode \$1;
#X obj 189 208 symbol;
#X msg 278 188 set 0 \, 1;
#X obj 278 364 outlet;
#X obj 38 113 s \$0-morph;
#X obj 105 113 s \$0-easemode;
#X obj 188 113 s \$0-grain;
#X obj 189 288 r \$0-morph;
#X obj 189 188 r \$0-easemode;
#X obj 402 228 r \$0-grain;
#X obj 276 113 t b l;
#X obj 276 133 s \$0-morphbang;
#X obj 189 268 r \$0-morphbang;
#X text 310 35 target;
#X text 354 97 direct list input;
#X text 206 35 set;
#X obj 231 36 inlet;
#X obj 276 36 inlet;
#X obj 38 76 route morph easemode grain, f 39;
#X obj 278 244 x/line_eased;
#X obj 278 324 x/list_interpolate;
#X obj 189 308 x/edgefade;
#X connect 0 0 24 0;
#X connect 1 0 3 0;
#X connect 2 0 8 0;
#X connect 2 1 4 0;
#X connect 2 2 1 0;
#X connect 3 0 4 1;
#X connect 4 0 26 2;
#X connect 4 1 5 0;
#X connect 5 0 25 1;
#X connect 6 0 25 0;
#X connect 7 0 6 0;
#X connect 8 0 25 0;
#X connect 13 0 27 0;
#X connect 14 0 7 0;
#X connect 15 0 25 2;
#X connect 16 0 17 0;
#X connect 16 1 26 2;
#X connect 18 0 27 0;
#X connect 22 0 26 1;
#X connect 23 0 16 0;
#X connect 24 0 10 0;
#X connect 24 1 11 0;
#X connect 24 2 12 0;
#X connect 24 3 2 0;
#X connect 25 0 26 0;
#X connect 26 0 9 0;
#X connect 27 0 26 0;
#X restore 105 477 pd ease_list;
#X obj 701 267 t f f f;
#X obj 701 198 t f f;
#X obj 832 303 iemguts/canvasdollarzero 1;
#X obj 832 323 s \$0-parentdollarzero;
#X obj 129 226 r \$0-parentdollarzero;
#X obj 739 366 t b b;
#X obj 739 386 f \$0;
#N canvas 1285 397 318 418 args 0;
#X obj 38 81 loadbang;
#X msg 38 101 args;
#X obj 38 121 pdcontrol;
#X obj 38 190 route float;
#X obj 38 210 s \$0-manual-id;
#X obj 38 141 x/argsparse;
#X obj 100 161 x/sendkwarg \$0;
#X connect 0 0 1 0;
#X connect 1 0 2 0;
#X connect 2 0 5 0;
#X connect 3 0 4 0;
#X connect 5 0 3 0;
#X connect 5 1 6 0;
#X restore 171 61 pd args;
#X obj 503 340 r \$0-kwarg-noease;
#X msg 503 360 0;
#X obj 459 380 spigot 1;
#X obj 609 178 r \$0-manual-id;
#X obj 609 158 r \$0-kwarg-id;
#X text 884 30 args:;
#X text 884 46 float or '-id' kwarg for manual id;
#X text 884 63 '-color' to color by id;
#X text 884 80 '-black' or '-color black' for black;
#X obj 128 187 print [stash] id;
#X text 1014 654 Ben Wesch \, 2024;
#X obj 739 287 t b f b;
#X obj 701 178 random 1e+06;
#X obj 42 364 route recording list float target ping;
#X text 884 96 '-noease' to avoid easing;
#X obj 236 619 text define \$0-recording;
#X msg 42 583 auto;
#X msg 75 583 line 0;
#X obj 42 619 text sequence \$0-recording -w 1;
#X obj 69 533 text fromlist \$0-recording;
#X obj 42 344 list trim;
#X msg 402 238 -1;
#X text 427 238 clear whole text;
#X msg 356 299 1e+15;
#X obj 334 219 realtime;
#X obj 334 189 t b b;
#X obj 315 169 t l b b;
#X obj 315 258 list prepend;
#X obj 356 278 loadbang;
#X obj 375 169 t b b;
#X obj 315 319 text set \$0-recording;
#X obj 402 258 text delete \$0-recording;
#X text 412 276 max position to append values, f 16;
#X obj 324 84 route store record stop;
#X msg 437 133 0;
#X obj 315 149 spigot;
#X msg 370 128 1;
#X obj 418 159 text tolist \$0-recording;
#X obj 418 199 list prepend recording;
#X obj 42 457 fudiparse;
#X obj 418 179 fudiformat -u;
#X msg 156 583 stop;
#X obj 418 108 t b b b;
#X text 65 265 send data to be saved in parent's [stash/hub] object, f 27;
#X obj 42 499 route bang;
#X obj 105 416 t a b b b;
#X obj 174 416 t a b b;
#X msg 301 579 0;
#X msg 270 579 1;
#X obj 42 563 t b b b;
#X obj 485 219 s \$0-record;
#X obj 301 599 s \$0-play;
#X obj 327 129 list;
#X obj 351 108 t b b b;
#X obj 315 108 t a a;
#X obj 63 61 t a a a;
#X obj 42 478 t a a;
#X obj 128 166 spigot 0;
#X obj 203 137 r \$0-kwarg-debug;
#X msg 203 157 1;
#X connect 0 0 125 0;
#X connect 3 0 90 0;
#X connect 4 0 5 1;
#X connect 9 0 82 0;
#X connect 10 0 62 0;
#X connect 10 1 27 0;
#X connect 11 0 9 1;
#X connect 12 0 13 0;
#X connect 12 0 15 1;
#X connect 13 0 12 1;
#X connect 15 0 16 0;
#X connect 16 0 23 0;
#X connect 16 1 28 0;
#X connect 17 0 12 0;
#X connect 18 0 14 0;
#X connect 21 0 9 0;
#X connect 22 0 14 1;
#X connect 23 0 33 0;
#X connect 25 0 12 1;
#X connect 26 0 82 0;
#X connect 27 0 10 0;
#X connect 28 0 20 0;
#X connect 29 0 22 0;
#X connect 29 0 31 0;
#X connect 32 0 11 0;
#X connect 34 0 46 1;
#X connect 34 0 127 0;
#X connect 39 0 15 0;
#X connect 39 1 23 1;
#X connect 44 0 46 0;
#X connect 45 0 44 0;
#X connect 45 1 1 0;
#X connect 46 0 5 0;
#X connect 47 0 61 1;
#X connect 48 0 115 0;
#X connect 49 0 61 0;
#X connect 50 0 103 0;
#X connect 53 0 49 0;
#X connect 54 0 61 0;
#X connect 55 0 61 0;
#X connect 57 0 58 0;
#X connect 58 0 56 0;
#X connect 58 1 56 1;
#X connect 60 0 72 0;
#X connect 60 1 53 0;
#X connect 60 2 54 0;
#X connect 60 3 55 0;
#X connect 61 0 1 0;
#X connect 62 0 39 0;
#X connect 62 1 81 0;
#X connect 62 2 27 1;
#X connect 63 0 62 0;
#X connect 63 1 27 1;
#X connect 64 0 29 1;
#X connect 64 0 52 0;
#X connect 64 0 65 0;
#X connect 66 0 4 0;
#X connect 67 0 68 0;
#X connect 67 1 25 0;
#X connect 68 0 18 0;
#X connect 70 0 71 0;
#X connect 71 0 72 1;
#X connect 72 0 48 1;
#X connect 73 0 63 0;
#X connect 74 0 63 0;
#X connect 81 0 67 0;
#X connect 81 1 29 0;
#X connect 81 2 64 0;
#X connect 82 0 63 0;
#X connect 83 0 109 0;
#X connect 83 1 48 0;
#X connect 83 2 48 0;
#X connect 83 3 116 0;
#X connect 83 4 57 0;
#X connect 86 0 88 0;
#X connect 87 0 88 0;
#X connect 88 0 1 0;
#X connect 88 2 117 0;
#X connect 90 0 83 0;
#X connect 91 0 101 0;
#X connect 93 0 100 1;
#X connect 94 0 97 1;
#X connect 95 0 94 0;
#X connect 95 1 94 1;
#X connect 96 0 97 0;
#X connect 96 1 95 0;
#X connect 96 2 97 1;
#X connect 97 0 100 0;
#X connect 98 0 93 0;
#X connect 99 0 94 0;
#X connect 99 1 91 0;
#X connect 103 0 45 0;
#X connect 103 1 123 0;
#X connect 103 2 112 0;
#X connect 103 3 60 0;
#X connect 104 0 105 1;
#X connect 104 0 120 0;
#X connect 105 0 96 0;
#X connect 106 0 105 1;
#X connect 106 0 120 0;
#X connect 107 0 110 0;
#X connect 108 0 46 0;
#X connect 109 0 126 0;
#X connect 110 0 108 0;
#X connect 111 0 88 0;
#X connect 111 0 117 0;
#X connect 112 0 107 0;
#X connect 112 1 104 0;
#X connect 112 2 111 0;
#X connect 114 1 119 0;
#X connect 115 0 61 0;
#X connect 115 1 47 0;
#X connect 115 2 1 0;
#X connect 115 3 111 0;
#X connect 116 0 61 2;
#X connect 116 1 47 0;
#X connect 116 2 1 0;
#X connect 117 0 121 0;
#X connect 118 0 121 0;
#X connect 119 0 86 0;
#X connect 119 1 87 0;
#X connect 119 2 118 0;
#X connect 122 0 105 0;
#X connect 123 0 122 0;
#X connect 123 1 106 0;
#X connect 123 2 99 0;
#X connect 124 0 105 0;
#X connect 124 1 122 1;
#X connect 125 0 44 1;
#X connect 125 1 47 1;
#X connect 125 2 124 0;
#X connect 126 0 114 0;
#X connect 126 1 89 0;
#X connect 127 0 79 0;
#X connect 128 0 129 0;
#X connect 129 0 127 1;
#X coords 0 -1 1 1 8 16 2 50 50;
