#N canvas 646 75 496 712 10;
#X obj 68 145 list_iterate;
#X obj 122 305 list;
#X obj 95 205 list fromsymbol;
#X obj 95 245 == 45;
#X obj 143 245 list prepend;
#X obj 95 285 t b b;
#X text 196 204 collect content until next "-" or end;
#X obj 95 265 sel 1;
#X obj 122 365 list fromsymbol;
#X obj 122 405 == 45;
#X obj 122 385 t f;
#X obj 122 562 list;
#X obj 242 562 list;
#X obj 122 624 outlet;
#X obj 242 624 outlet;
#X obj 242 582 list trim;
#X obj 49 48 inlet;
#X text 286 623 kwargs;
#X text 166 623 args;
#X text 59 412 output dependent on kwargs or args, f 9;
#X text 132 284 output and reset collection;
#X obj 122 425 sel 0 1;
#X obj 229 442 list split 1;
#X text 307 502 remove leading "-";
#X obj 229 482 list fromsymbol;
#X obj 229 502 list split 1;
#X obj 263 522 list tosymbol;
#X obj 263 542 list;
#X text 99 43 handles given arguments and splits flags/float and keyword arguments., f 46;
#X msg 413 582 START;
#X msg 370 582 DONE;
#X text 99 97 generates two kwargs before and after output: START and DONE, f 45;
#X obj 229 462 route symbol;
#X obj 49 106 t b a b;
#X obj 95 225 t f;
#X obj 212 225 t a;
#X obj 122 345 t s l l;
#X obj 122 325 route bang;
#X obj 68 165 t a s;
#X connect 0 0 38 0;
#X connect 0 1 5 0;
#X connect 1 0 37 0;
#X connect 2 0 34 0;
#X connect 3 0 7 0;
#X connect 4 0 1 1;
#X connect 4 0 35 0;
#X connect 5 0 4 1;
#X connect 5 1 1 0;
#X connect 7 0 5 0;
#X connect 8 0 10 0;
#X connect 9 0 21 0;
#X connect 10 0 9 0;
#X connect 11 0 13 0;
#X connect 12 0 15 0;
#X connect 15 0 14 0;
#X connect 16 0 33 0;
#X connect 21 0 11 0;
#X connect 21 1 12 0;
#X connect 22 0 32 0;
#X connect 22 1 27 1;
#X connect 24 0 25 0;
#X connect 25 1 26 0;
#X connect 26 0 27 0;
#X connect 27 0 12 1;
#X connect 29 0 14 0;
#X connect 30 0 14 0;
#X connect 32 0 24 0;
#X connect 33 0 30 0;
#X connect 33 1 0 0;
#X connect 33 2 29 0;
#X connect 34 0 3 0;
#X connect 35 0 4 1;
#X connect 36 0 8 0;
#X connect 36 1 11 1;
#X connect 36 2 22 0;
#X connect 37 1 36 0;
#X connect 38 0 4 0;
#X connect 38 1 2 0;
