#N canvas 652 225 398 390 12;
#X obj 52 97 t f f;
#X msg 232 177 list a b c d e f;
#X obj 232 153 loadbang;
#X obj 84 224 list store;
#X obj 165 224 list store;
#X msg 84 200 get \$1;
#X msg 165 199 get \$1;
#X obj 52 253 list prepend;
#X obj 84 173 - 10;
#X obj 165 172 - 10;
#X obj 52 145 moses 10;
#X obj 133 145 moses 10;
#X obj 52 46 inlet;
#X obj 52 327 outlet;
#X obj 52 121 mod 16;
#X obj 133 121 div 16;
#X text 248 326 Ben Wesch \, 2024;
#X msg 52 277 \$1\$2;
#X connect 0 0 14 0;
#X connect 0 1 15 0;
#X connect 1 0 4 1;
#X connect 1 0 3 1;
#X connect 2 0 1 0;
#X connect 3 0 7 0;
#X connect 4 0 7 1;
#X connect 5 0 3 0;
#X connect 6 0 4 0;
#X connect 7 0 17 0;
#X connect 8 0 5 0;
#X connect 9 0 6 0;
#X connect 10 0 7 0;
#X connect 10 1 8 0;
#X connect 11 0 7 1;
#X connect 11 1 9 0;
#X connect 12 0 0 0;
#X connect 14 0 10 0;
#X connect 15 0 11 0;
#X connect 17 0 13 0;
