#N canvas 512 242 607 560 12;
#X obj 54 49 inlet;
#X obj 130 273 +;
#X obj 161 273 f;
#X obj 130 300 t f f;
#X obj 173 319 +;
#X obj 204 319 f;
#X msg 148 231 1;
#X obj 98 159 t l b b;
#X msg 191 231 0;
#X obj 98 183 list split 1;
#X obj 113 207 list;
#X obj 98 231 t b l;
#X obj 54 374 f;
#X obj 54 446 +;
#X obj 54 494 outlet;
#X obj 54 350 t b b;
#X obj 112 374 f;
#X obj 112 398 mod 65521;
#X text 261 47 simple checksum algorithm;
#X text 261 82 see https://en.wikipedia.org/wiki/Adler-32;
#X text 190 184 iterate list;
#X obj 54 422 << 16;
#X text 260 119 checksum exceeds integer range for proper float32 representation (2^24+1) though. see https://stackoverflow.com/a/3793950, f 41;
#X obj 54 398 mod 251;
#X text 192 398 <-- changed to [mod 251] to stay in 2^24 range;
#X obj 98 135 list fromsymbol;
#X obj 54 92 t b s;
#X text 438 497 Ben Wesch \, 2024;
#X connect 0 0 26 0;
#X connect 1 0 2 0;
#X connect 1 0 3 0;
#X connect 2 0 1 1;
#X connect 3 0 16 1;
#X connect 3 1 4 0;
#X connect 4 0 5 0;
#X connect 4 0 12 1;
#X connect 5 0 4 1;
#X connect 6 0 1 1;
#X connect 7 0 9 0;
#X connect 7 1 6 0;
#X connect 7 2 8 0;
#X connect 8 0 4 1;
#X connect 9 0 11 0;
#X connect 9 1 10 1;
#X connect 10 0 9 0;
#X connect 11 0 10 0;
#X connect 11 1 1 0;
#X connect 12 0 23 0;
#X connect 13 0 14 0;
#X connect 15 0 12 0;
#X connect 15 1 16 0;
#X connect 16 0 17 0;
#X connect 17 0 13 1;
#X connect 21 0 13 0;
#X connect 23 0 21 0;
#X connect 25 0 7 0;
#X connect 26 0 15 0;
#X connect 26 1 25 0;
