#N canvas 471 206 342 339 10;
#X obj 33 30 inlet;
#X obj 110 30 inlet;
#X obj 33 134 f;
#X obj 33 293 outlet;
#X obj 33 81 sel 1;
#X obj 60 134 - 1;
#X text 83 134 values of -1 or 1;
#X obj 60 154 t f b f;
#X obj 79 194 *;
#X obj 60 213 * 127;
#X obj 60 253 + 127;
#X text 67 81 0 \, 2 are mapped to around 0 \, 255;
#X obj 60 233 -;
#X msg 110 154 seed \$1;
#X obj 79 174 random 64;
#X obj 110 112 * 123;
#X connect 0 0 4 0;
#X connect 1 0 2 1;
#X connect 1 0 15 0;
#X connect 2 0 3 0;
#X connect 4 0 2 0;
#X connect 4 1 5 0;
#X connect 5 0 7 0;
#X connect 7 0 9 0;
#X connect 7 1 14 0;
#X connect 7 2 8 1;
#X connect 8 0 12 1;
#X connect 9 0 12 0;
#X connect 10 0 3 0;
#X connect 12 0 10 0;
#X connect 13 0 14 0;
#X connect 14 0 8 0;
#X connect 15 0 13 0;
