#N canvas 471 206 463 404 10;
#X obj 33 30 inlet;
#X obj 110 30 inlet;
#X obj 33 174 f;
#X obj 33 333 outlet;
#X obj 33 132 sel 1;
#X obj 60 174 - 1;
#X text 83 174 values of -1 or 1;
#X obj 60 194 t f b f;
#X obj 79 234 *;
#X obj 60 254 * 127;
#X text 189 30 0 \, 2 are mapped to around 0 \, 255;
#X obj 60 274 -;
#X obj 60 294 + 127;
#X obj 110 132 random 256;
#X obj 79 214 random 64;
#X msg 137 92 seed \$1;
#X obj 110 50 / \$1;
#X obj 110 71 t b f;
#X connect 0 0 4 0;
#X connect 1 0 16 0;
#X connect 2 0 3 0;
#X connect 4 0 2 0;
#X connect 4 1 5 0;
#X connect 5 0 7 0;
#X connect 7 0 9 0;
#X connect 7 1 14 0;
#X connect 7 2 8 1;
#X connect 8 0 11 1;
#X connect 9 0 11 0;
#X connect 11 0 12 0;
#X connect 12 0 3 0;
#X connect 13 0 2 1;
#X connect 14 0 8 0;
#X connect 15 0 13 0;
#X connect 15 0 14 0;
#X connect 16 0 17 0;
#X connect 17 0 13 0;
#X connect 17 1 15 0;
