#N canvas 51 129 1352 874 12;
#X obj 800 65 namecanvas \$0-pad;
#X obj 503 493 route size;
#X obj 320 517 unpack, f 10;
#X obj 352 493 unpack;
#X obj 503 517 unpack;
#X obj 320 541 -;
#X obj 387 541 -;
#X obj 320 613 &&;
#X obj 387 613 &&;
#X obj 320 637 &&;
#X obj 201 55 loadbang;
#X obj 201 103 f \$1;
#X obj 381 103 f \$2;
#X obj 201 318 pack;
#X obj 201 127 sel 0;
#X obj 381 127 sel 0;
#X obj 201 366 s \$0-pad;
#X obj 352 469 iemguts/canvasposition;
#X obj 201 397 iemguts/receivecanvas 1;
#X obj 320 445 t l b;
#X obj 201 421 route mouseup mouse motion;
#X msg 201 666 0;
#X msg 260 637 1;
#X msg 201 151 127;
#X msg 381 151 127;
#X obj 320 565 t f f f;
#X obj 387 565 t f f f;
#X obj 260 666 spigot;
#X obj 260 804 outlet;
#X obj 320 589 >= 0;
#X obj 387 589 >= 0;
#X obj 424 589 <;
#X obj 357 589 <;
#X obj 517 661 clip;
#X obj 366 661 clip;
#X obj 503 589 - 1;
#X obj 542 589 - 1;
#X obj 30 38 inlet;
#X msg 201 342 donecanvasdialog 0 0 -1 0 -1 1 1 \$1 \$2 800 100 1 \, dirty 0;
#X obj 201 175 t f f;
#X obj 381 175 t f f;
#X obj 366 709 t f f;
#X obj 517 709 t f f;
#X obj 903 100 cnv 1 1 127 empty \$0-drag-ybar empty 20 12 0 12 #000000 #404040 0;
#X obj 800 181 cnv 1 127 1 empty \$0-drag-xbar empty 20 12 0 12 #000000 #404040 0;
#X obj 413 279 s \$0-drag-xbar;
#X obj 594 236 bng 19 250 50 0 empty empty empty 0 -10 0 12 #fcfcfc #000000 #000000;
#X obj 233 279 s \$0-drag-ybar;
#X obj 30 138 unpack;
#X obj 201 79 t b b b;
#X obj 258 194 + 800;
#X obj 438 194 + 100;
#X msg 594 260 size 10;
#X obj 233 217 pack;
#X obj 413 217 pack;
#X obj 517 804 s \$0-drag-xbar;
#X obj 366 804 s \$0-drag-ybar;
#X msg 366 780 pos \$2 100;
#X obj 398 733 + 800;
#X obj 549 733 + 100;
#X obj 366 756 pack;
#X obj 517 756 pack;
#X msg 517 780 pos 800 \$2;
#X obj 366 685 spigot;
#X obj 517 685 spigot;
#X obj 260 728 pack;
#X msg 233 241 size 1 \, vis_size 1 \$1 \, pos \$2 100, f 22;
#X msg 413 241 size 1 \, vis_size \$1 1 \, pos 800 \$2, f 22;
#X obj 30 89 route size bang list;
#X obj 126 217 unpack;
#X connect 1 0 4 0;
#X connect 2 0 5 0;
#X connect 2 1 6 0;
#X connect 3 0 5 1;
#X connect 3 1 6 1;
#X connect 4 0 32 1;
#X connect 4 0 35 0;
#X connect 4 1 31 1;
#X connect 4 1 36 0;
#X connect 5 0 25 0;
#X connect 6 0 26 0;
#X connect 7 0 9 0;
#X connect 8 0 9 1;
#X connect 9 0 27 1;
#X connect 10 0 49 0;
#X connect 11 0 14 0;
#X connect 12 0 15 0;
#X connect 13 0 38 0;
#X connect 14 0 23 0;
#X connect 14 1 39 0;
#X connect 15 0 24 0;
#X connect 15 1 40 0;
#X connect 17 0 3 0;
#X connect 17 2 1 0;
#X connect 18 0 20 0;
#X connect 19 0 2 0;
#X connect 19 1 17 0;
#X connect 20 0 21 0;
#X connect 20 1 22 0;
#X connect 20 2 19 0;
#X connect 21 0 63 1;
#X connect 21 0 64 1;
#X connect 22 0 27 0;
#X connect 23 0 39 0;
#X connect 24 0 40 0;
#X connect 25 0 29 0;
#X connect 25 1 32 0;
#X connect 25 2 34 0;
#X connect 26 0 30 0;
#X connect 26 1 31 0;
#X connect 26 2 33 0;
#X connect 27 0 63 1;
#X connect 27 0 64 1;
#X connect 29 0 7 0;
#X connect 30 0 8 0;
#X connect 31 0 8 1;
#X connect 32 0 7 1;
#X connect 33 0 64 0;
#X connect 34 0 63 0;
#X connect 35 0 34 2;
#X connect 36 0 33 2;
#X connect 37 0 68 0;
#X connect 38 0 16 0;
#X connect 39 0 13 0;
#X connect 39 0 53 0;
#X connect 39 1 50 0;
#X connect 40 0 13 1;
#X connect 40 0 54 0;
#X connect 40 1 51 0;
#X connect 41 0 60 0;
#X connect 41 0 65 0;
#X connect 41 1 58 0;
#X connect 42 0 61 0;
#X connect 42 0 65 1;
#X connect 42 1 59 0;
#X connect 46 0 52 0;
#X connect 48 0 39 0;
#X connect 48 1 40 0;
#X connect 49 0 11 0;
#X connect 49 1 12 0;
#X connect 50 0 53 1;
#X connect 51 0 54 1;
#X connect 52 0 45 0;
#X connect 52 0 47 0;
#X connect 53 0 66 0;
#X connect 54 0 67 0;
#X connect 57 0 56 0;
#X connect 58 0 60 1;
#X connect 59 0 61 1;
#X connect 60 0 57 0;
#X connect 61 0 62 0;
#X connect 62 0 55 0;
#X connect 63 0 41 0;
#X connect 64 0 42 0;
#X connect 65 0 28 0;
#X connect 66 0 47 0;
#X connect 67 0 45 0;
#X connect 68 0 48 0;
#X connect 68 1 65 0;
#X connect 68 2 69 0;
#X connect 69 0 41 0;
#X connect 69 1 42 0;
#X coords 0 -1 1 1 127 127 2 800 100;
