#N canvas 457 160 791 801 10;
#X obj 333 91 namecanvas \$0-pad;
#X obj 293 441 route size;
#X obj 137 462 unpack, f 10;
#X obj 164 441 unpack;
#X obj 293 462 unpack;
#X obj 137 529 -;
#X obj 196 485 -;
#X obj 137 598 &&;
#X obj 197 598 &&;
#X obj 137 619 &&;
#X obj 200 50 loadbang;
#X obj 200 91 f \$1;
#X obj 240 91 f \$2;
#X obj 200 111 sel 0;
#X obj 240 111 sel 0;
#X obj 239 239 s \$0-pad;
#X obj 164 421 iemguts/canvasposition;
#X obj 35 351 iemguts/receivecanvas 1;
#X obj 137 401 t l b;
#X msg 35 646 0;
#X msg 113 619 1, f 2;
#X obj 137 554 t f f f;
#X obj 197 554 t f f f;
#X obj 113 646 spigot;
#X obj 76 733 outlet;
#X obj 137 576 >= 0;
#X obj 197 576 >= 0;
#X obj 231 576 <;
#X obj 170 576 <;
#X obj 316 641 clip;
#X obj 176 641 clip;
#X obj 293 576 - 1;
#X obj 326 576 - 1;
#X obj 37 52 inlet;
#X obj 176 662 spigot;
#X obj 316 662 spigot;
#X obj 76 699 pack;
#X obj 37 72 route size bang list;
#X obj 115 276 unpack;
#X obj 200 71 t b b;
#X obj 35 371 route mouseup mouse motion;
#X obj 86 401 t l b;
#X obj 389 331 pointer;
#X obj 389 292 f \$0;
#X msg 389 311 traverse pd-\$1-display \, bang;
#N canvas 237 262 450 300 \$0-display 0;
#X coords 0 80 80 0 80 80 1;
#X restore 600 100 pd \$0-display;
#N canvas 647 566 505 268 \$0-ybar-template 0;
#X obj 60 118 drawpolygon 0 1 0 y width y;
#X obj 60 95 struct \$0-ybar-template float y float width;
#X restore 333 70 pd \$0-ybar-template;
#N canvas 647 566 505 268 \$0-xbar-template 0;
#X obj 60 118 drawpolygon 0 1 x 0 x height;
#X obj 60 95 struct \$0-xbar-template float x float height;
#X restore 333 49 pd \$0-xbar-template;
#X obj 200 371 append \$0-xbar-template x height;
#X obj 227 351 append \$0-ybar-template y width;
#X obj 296 260 s pd-\$0-display;
#X obj 200 331 t f f;
#X msg 200 311 0;
#X obj 261 331 unpack;
#X obj 200 276 t b l b;
#X obj 316 723 set \$0-ybar-template y;
#X obj 176 723 set \$0-xbar-template x;
#X obj 316 683 t a;
#X obj 176 683 t a;
#X obj 176 703 * 0.5;
#X obj 316 703 * 0.5;
#X obj 200 196 t a a a;
#X text 350 702 FIXME: why???;
#X obj 240 152 t a;
#X obj 200 175 pack;
#X obj 200 152 t a;
#X msg 240 131 128;
#X msg 200 131 128;
#X obj 240 175 - 1;
#X obj 196 506 * -1;
#X obj 197 529 +;
#X msg 296 239 coords 0 \$2 \$1 0 \$1 \$2 -1 \, clear;
#X msg 239 218 donecanvasdialog 1 -1 1 0 1 1 -1 \$1 \$2 600 100 \, dirty 0;
#X connect 1 0 4 0;
#X connect 2 0 5 0;
#X connect 2 1 6 0;
#X connect 3 0 5 1;
#X connect 3 1 6 1;
#X connect 4 0 28 1;
#X connect 4 0 31 0;
#X connect 4 1 27 1;
#X connect 4 1 32 0;
#X connect 5 0 21 0;
#X connect 6 0 69 0;
#X connect 7 0 9 0;
#X connect 8 0 9 1;
#X connect 9 0 23 1;
#X connect 10 0 39 0;
#X connect 11 0 13 0;
#X connect 12 0 14 0;
#X connect 13 0 67 0;
#X connect 13 1 65 0;
#X connect 14 0 66 0;
#X connect 14 1 63 0;
#X connect 16 0 3 0;
#X connect 16 2 1 0;
#X connect 17 0 40 0;
#X connect 18 0 2 0;
#X connect 18 1 16 0;
#X connect 19 0 34 1;
#X connect 19 0 35 1;
#X connect 20 0 23 0;
#X connect 21 0 25 0;
#X connect 21 1 28 0;
#X connect 21 2 30 0;
#X connect 22 0 26 0;
#X connect 22 1 27 0;
#X connect 22 2 29 0;
#X connect 23 0 34 1;
#X connect 23 0 35 1;
#X connect 25 0 7 0;
#X connect 26 0 8 0;
#X connect 27 0 8 1;
#X connect 28 0 7 1;
#X connect 29 0 35 0;
#X connect 30 0 34 0;
#X connect 31 0 30 2;
#X connect 32 0 29 2;
#X connect 33 0 37 0;
#X connect 34 0 58 0;
#X connect 35 0 57 0;
#X connect 36 0 24 0;
#X connect 37 0 61 0;
#X connect 37 1 36 0;
#X connect 37 2 38 0;
#X connect 38 0 58 0;
#X connect 38 1 57 0;
#X connect 39 0 11 0;
#X connect 39 1 12 0;
#X connect 40 0 19 0;
#X connect 40 1 41 0;
#X connect 40 2 18 0;
#X connect 41 0 2 0;
#X connect 41 1 20 0;
#X connect 42 0 49 2;
#X connect 42 0 48 2;
#X connect 43 0 44 0;
#X connect 44 0 42 0;
#X connect 48 0 56 1;
#X connect 49 0 55 1;
#X connect 51 0 48 0;
#X connect 51 1 49 0;
#X connect 52 0 51 0;
#X connect 53 0 49 1;
#X connect 53 1 48 1;
#X connect 54 0 52 0;
#X connect 54 1 53 0;
#X connect 54 2 43 0;
#X connect 57 0 60 0;
#X connect 57 0 36 1;
#X connect 58 0 36 0;
#X connect 58 0 59 0;
#X connect 59 0 56 0;
#X connect 60 0 55 0;
#X connect 61 0 54 0;
#X connect 61 1 72 0;
#X connect 61 2 71 0;
#X connect 63 0 64 1;
#X connect 63 0 68 0;
#X connect 64 0 61 0;
#X connect 65 0 64 0;
#X connect 66 0 63 0;
#X connect 67 0 65 0;
#X connect 68 0 70 1;
#X connect 69 0 70 0;
#X connect 70 0 22 0;
#X connect 71 0 50 0;
#X connect 72 0 15 0;
#X coords 0 1 1 -1 80 80 1 600 100;
