#N canvas 146 257 668 255 12;
#X obj 56 152 pack;
#X obj 79 128 ease \$1;
#X obj 56 176 s \$1;
#X obj 79 104 / 99;
#X obj 56 56 inlet;
#X obj 56 80 t f f b;
#X msg 185 104 edit 0 \, yticks 0 0.05 10 \, xticks 0 5 10 \, width 2 \, color 24;
#X connect 0 0 2 0;
#X connect 1 0 0 1;
#X connect 3 0 1 0;
#X connect 4 0 5 0;
#X connect 5 0 0 0;
#X connect 5 1 3 0;
#X connect 5 2 6 0;
#X connect 6 0 2 0;
#X coords 0 255 1 254 32 31 0;
