#N struct 1968-value float width float y symbol text float visible float border float background;
#N canvas 310 101 1200 743 12;
#N canvas 0 22 450 278 (subpatch) 0;
#X array smoothstep 100 float 0;
#X coords 0 1 99 0 100 100 1 0 0;
#X restore 898 244 graph;
#N canvas 690 389 565 695 draw_functions 0;
#X obj 79 115 until;
#X obj 79 91 t f b;
#X msg 122 115 0;
#X obj 79 139 f;
#X obj 108 139 + 1;
#X obj 79 43 inlet;
#X msg 79 67 100;
#X obj 195 43 ease-help-drawfunction smoothstep;
#X obj 195 73 ease-help-drawfunction smootherstep;
#X obj 195 103 ease-help-drawfunction inout-sine;
#X obj 195 133 ease-help-drawfunction inout-cubic;
#X obj 195 163 ease-help-drawfunction inout-expo;
#X obj 195 193 ease-help-drawfunction inout-back;
#X obj 195 223 ease-help-drawfunction in-sine;
#X obj 195 253 ease-help-drawfunction in-cubic;
#X obj 195 283 ease-help-drawfunction inout-sine;
#X obj 195 313 ease-help-drawfunction in-expo;
#X obj 195 343 ease-help-drawfunction in-back;
#X obj 195 373 ease-help-drawfunction out-sine;
#X obj 195 403 ease-help-drawfunction in-cubic;
#X obj 195 433 ease-help-drawfunction out-cubic;
#X obj 195 463 ease-help-drawfunction out-expo;
#X obj 195 493 ease-help-drawfunction out-back;
#X obj 195 553 ease-help-drawfunction out-elastic;
#X obj 195 583 ease-help-drawfunction step;
#X obj 195 613 ease-help-drawfunction linear;
#X obj 195 523 ease-help-drawfunction out-bounce;
#X connect 0 0 3 0;
#X connect 1 0 0 0;
#X connect 1 1 2 0;
#X connect 2 0 3 1;
#X connect 3 0 4 0;
#X connect 3 0 7 0;
#X connect 3 0 25 0;
#X connect 3 0 24 0;
#X connect 3 0 23 0;
#X connect 3 0 22 0;
#X connect 3 0 21 0;
#X connect 3 0 20 0;
#X connect 3 0 19 0;
#X connect 3 0 18 0;
#X connect 3 0 17 0;
#X connect 3 0 16 0;
#X connect 3 0 15 0;
#X connect 3 0 14 0;
#X connect 3 0 13 0;
#X connect 3 0 12 0;
#X connect 3 0 11 0;
#X connect 3 0 10 0;
#X connect 3 0 9 0;
#X connect 3 0 8 0;
#X connect 3 0 26 0;
#X connect 4 0 3 1;
#X connect 5 0 6 0;
#X connect 6 0 1 0;
#X restore 249 649 pd draw_functions;
#N canvas 0 22 450 278 (subpatch) 0;
#X array smootherstep 100 float 0;
#X coords 0 1 99 0 100 100 1 0 0;
#X restore 1018 244 graph;
#N canvas 0 22 450 278 (subpatch) 0;
#X array inout-sine 100 float 0;
#X coords 0 1 99 0 100 100 1 0 0;
#X restore 418 244 graph;
#N canvas 0 22 450 278 (subpatch) 0;
#X array inout-cubic 100 float 0;
#X coords 0 1 99 0 100 100 1 0 0;
#X restore 538 244 graph;
#N canvas 0 22 450 278 (subpatch) 0;
#X array inout-expo 100 float 0;
#X coords 0 1 99 0 100 100 1 0 0;
#X restore 658 244 graph;
#N canvas 0 22 450 278 (subpatch) 0;
#X array inout-back 100 float 0;
#X coords 0 1 99 0 100 100 1 0 0;
#X restore 778 244 graph;
#N canvas 0 22 450 278 (subpatch) 0;
#X array step 100 float 0;
#X coords 0 1 99 0 100 100 1 0 0;
#X restore 418 82 graph;
#N canvas 0 22 450 278 (subpatch) 0;
#X array linear 100 float 0;
#X coords 0 1 99 0 100 100 1 0 0;
#X restore 538 82 graph;
#X text 416 48 none /;
#X text 536 48 line /;
#N canvas 0 22 450 278 (subpatch) 0;
#X array in-sine 100 float 0;
#X coords 0 1 99 0 100 100 1 0 0;
#X restore 418 406 graph;
#N canvas 0 22 450 278 (subpatch) 0;
#X array in-cubic 100 float 0;
#X coords 0 1 99 0 100 100 1 0 0;
#X restore 538 406 graph;
#N canvas 0 22 450 278 (subpatch) 0;
#X array in-expo 100 float 0;
#X coords 0 1 99 0 100 100 1 0 0;
#X restore 658 406 graph;
#N canvas 0 22 450 278 (subpatch) 0;
#X array in-back 100 float 0;
#X coords 0 1 99 0 100 100 1 0 0;
#X restore 778 406 graph;
#N canvas 0 22 450 278 (subpatch) 0;
#X array out-sine 100 float 0;
#X coords 0 1 99 0 100 100 1 0 0;
#X restore 418 568 graph;
#N canvas 0 22 450 278 (subpatch) 0;
#X array out-cubic 100 float 0;
#X coords 0 1 99 0 100 100 1 0 0;
#X restore 538 568 graph;
#N canvas 0 22 450 278 (subpatch) 0;
#X array out-expo 100 float 0;
#X coords 0 1 99 0 100 100 1 0 0;
#X restore 658 568 graph;
#N canvas 0 22 450 278 (subpatch) 0;
#X array out-back 100 float 0;
#X coords 0 1 99 0 100 100 1 0 0;
#X restore 778 568 graph;
#N canvas 0 22 450 278 (subpatch) 0;
#X array out-bounce 100 float 0;
#X coords 0 1 99 0 100 100 1 0 0;
#X restore 898 568 graph;
#N canvas 0 22 450 278 (subpatch) 0;
#X array out-elastic 100 float 0;
#X coords 0 1 99 0 100 100 1 0 0;
#X restore 1018 568 graph;
#X text 536 210 inout /;
#X text 536 532 out /;
#X text 536 372 in /;
#X obj 249 625 loadbang;
#X obj 153 353 dropdown;
#A saved none \; linear \; inout-sine \; inout-cubic \; inout-expo \; inout-back \; smoothstep \; smootherstep \; in-sine \; in-cubic \; in-expo \; in-back \; out-sine \; out-cubic \; out-expo \; out-back \; out-bounce \; out-elastic \;;
#X obj 107 372 ease;
#X obj 110 272 hsl 200 40 0 1 0 0 empty empty empty -2 -10 0 12 #fcfcfc #003973 #000000 0 1;
#X obj 50 406 hsl 320 40 -0.3 1.3 0 0 empty empty empty -2 -10 0 12 #ffffff #294388 #000000 0 1;
#X obj 107 82 tgl 19 0 empty empty run 0 -8 0 12 #fcfcfc #000000 #000000 0 1;
#X obj 183 173 spigot;
#X obj 222 82 tgl 19 0 empty empty autoswitch\ functions 0 -8 0 12 #fcfcfc #000000 #000000 0 1;
#X obj 107 130 f;
#X obj 137 130 + 1;
#X obj 167 130 mod 18;
#X obj 107 154 t b f;
#X obj 107 202 line 0 8;
#X obj 107 106 metro 2400;
#X msg 107 178 0 \, 1 2000;
#X text 183 254 0 .. 1;
#X text 899 77 Ease functions can be selected through a symbol message to the right inlet or initalized with the corresponding argument. Default is linear., f 30;
#X text 162 388 -0.3 .. 1.3;
#X obj 107 510 mtof~;
#X obj 107 649 dac~;
#X obj 183 197 s \$0-dropdown;
#X obj 153 329 r \$0-dropdown;
#X obj 202 485 mtof~;
#X obj 107 462 * 12;
#X obj 107 486 + 28;
#X obj 107 601 *~;
#X obj 107 534 square~;
#X obj 202 533 *~ -0.1;
#X obj 202 509 osc~;
#X obj 107 577 *~;
#X obj 319 558 tgl 19 0 empty empty sound 0 -8 0 12 #fcfcfc #000000 #000000 0 1;
#X obj 319 582 lop~ 20;
#X obj 114 625 rev3~ 99 92 800 99;
#X obj 202 461 sig~ 31;
#X obj 151 510 * 0.97;
#X text 664 77 The [ease] objects is used for applying ease functions to input values from 0 to 1 Available functions (and aliases) are visualized here., f 29;
#X connect 24 0 1 0;
#X connect 25 0 26 1;
#X connect 26 0 28 0;
#X connect 27 0 26 0;
#X connect 28 0 47 0;
#X connect 28 0 58 0;
#X connect 29 0 37 0;
#X connect 30 0 44 0;
#X connect 31 0 30 1;
#X connect 32 0 33 0;
#X connect 32 0 35 0;
#X connect 33 0 34 0;
#X connect 34 0 32 1;
#X connect 35 0 38 0;
#X connect 35 1 30 0;
#X connect 36 0 27 0;
#X connect 37 0 32 0;
#X connect 38 0 36 0;
#X connect 42 0 50 0;
#X connect 45 0 25 0;
#X connect 46 0 52 0;
#X connect 47 0 48 0;
#X connect 48 0 42 0;
#X connect 49 0 43 0;
#X connect 49 0 43 1;
#X connect 49 0 56 0;
#X connect 49 0 56 1;
#X connect 50 0 53 0;
#X connect 51 0 53 1;
#X connect 52 0 51 0;
#X connect 53 0 49 0;
#X connect 54 0 55 0;
#X connect 55 0 49 1;
#X connect 56 0 43 0;
#X connect 56 1 43 1;
#X connect 57 0 46 0;
#X connect 58 0 50 1;
