#N canvas 150 187 600 383 12;
#X obj 78 183 sel 1 0, f 12;
#X obj 46 252 *;
#X msg 78 233 -1, f 2;
#X obj 46 276 +;
#X msg 118 233 1, f 2;
#X msg 137 257 0, f 2;
#X msg 98 257 1, f 2;
#X obj 46 135 spigot 0;
#X msg 117 135 0, f 1;
#X obj 157 209 b;
#X msg 171 233 0, f 1;
#X msg 157 233 1, f 1;
#X obj 78 159 spigot 1;
#X msg 131 135 1, f 1;
#X obj 46 43 inlet;
#X obj 46 87 route float bang;
#X obj 46 320 outlet;
#X text 205 83 waits for an input of 0 or 1 (fader min or max) and then creates a full range fade from 0 to 1 in the open direction, f 42;
#X obj 46 111 t f f;
#X text 205 143 bang resets behavior to wait for next 0 or 1;
#X text 205 173 abstraction mainly used for "morph" mode;
#X connect 0 0 2 0;
#X connect 0 0 6 0;
#X connect 0 0 9 0;
#X connect 0 1 4 0;
#X connect 0 1 5 0;
#X connect 0 1 9 0;
#X connect 1 0 3 0;
#X connect 2 0 1 1;
#X connect 3 0 16 0;
#X connect 4 0 1 1;
#X connect 5 0 3 1;
#X connect 6 0 3 1;
#X connect 7 0 1 0;
#X connect 8 0 7 1;
#X connect 9 0 10 0;
#X connect 9 0 11 0;
#X connect 10 0 12 1;
#X connect 11 0 7 1;
#X connect 12 0 0 0;
#X connect 13 0 12 1;
#X connect 14 0 15 0;
#X connect 15 0 18 0;
#X connect 15 1 8 0;
#X connect 15 1 13 0;
#X connect 18 0 7 0;
#X connect 18 1 12 0;
