#N canvas 171 96 577 540 12;
#X obj 53 49 inlet;
#X obj 120 369 f, f 5;
#X obj 53 431 +, f 10;
#X obj 85 388 -;
#X obj 53 407 *;
#X obj 53 306 line \$1 \$2, f 16;
#X obj 53 479 outlet;
#X obj 53 105 route float list set grain easemode, f 36;
#X text 96 48 expecting list of target value \, duration as for [line] object, f 31;
#X obj 53 330 ease, f 22;
#X obj 433 49 inlet;
#X obj 488 49 inlet;
#X msg 53 233 set 0 \, 1;
#X obj 53 194 t b f;
#X obj 53 129 t l b, f 10;
#X text 162 368 start value;
#X text 112 387 difference target - start;
#X text 81 406 transition from start to target: 0..1;
#X text 282 125 route other messages to line (e.g. "stop"), f 28;
#X text 420 478 Ben Wesch \, 2023;
#X obj 53 170 unpack f f f;
#X text 339 247 FIXME: handle creation args;
#X connect 0 0 7 0;
#X connect 1 0 3 1;
#X connect 1 0 2 1;
#X connect 2 0 1 1;
#X connect 2 0 6 0;
#X connect 3 0 4 1;
#X connect 4 0 2 0;
#X connect 5 0 9 0;
#X connect 7 0 14 0;
#X connect 7 1 14 0;
#X connect 7 2 1 1;
#X connect 7 3 5 2;
#X connect 7 4 9 1;
#X connect 7 5 5 0;
#X connect 9 0 4 0;
#X connect 10 0 5 1;
#X connect 11 0 5 2;
#X connect 12 0 5 0;
#X connect 13 0 12 0;
#X connect 13 1 3 0;
#X connect 14 0 20 0;
#X connect 14 1 1 0;
#X connect 20 0 13 0;
#X connect 20 1 5 1;
#X connect 20 2 5 2;
