#N canvas 524 43 296 275 10;
#X obj 39 125 list split 1;
#X obj 39 32 inlet;
#X obj 66 205 outlet;
#X obj 52 145 list;
#X obj 108 205 outlet;
#X obj 69 63 loadbang;
#X obj 69 83 f \$1;
#X obj 69 104 moses 2;
#X text 102 83 argument for chunk sizes;
#X obj 39 166 t b a;
#X connect 0 0 9 0;
#X connect 0 1 3 1;
#X connect 0 2 4 0;
#X connect 1 0 0 0;
#X connect 3 0 0 0;
#X connect 5 0 6 0;
#X connect 6 0 7 0;
#X connect 7 1 0 1;
#X connect 9 0 3 0;
#X connect 9 1 2 0;
