#N canvas 321 50 719 678 12;
#X obj 46 43 inlet;
#X obj 427 282 array define \$0-state;
#X obj 100 258 f;
#X obj 100 306 until;
#X obj 100 282 t f b;
#X msg 143 306 0;
#X obj 100 330 f;
#X obj 129 330 + 1;
#X obj 257 282 array size \$0-state;
#X obj 434 306 array define \$0-from;
#X obj 449 330 array define \$0-to;
#X obj 237 306 array size \$0-from;
#X obj 217 330 array size \$0-to;
#X obj 165 110 array set \$0-from;
#X obj 299 110 array set \$0-to;
#X obj 100 418 array get \$0-to 0 1;
#X obj 175 460 array get \$0-from 0 1;
#X obj 100 503 -;
#X obj 137 522 *;
#X obj 175 484 t f f;
#X obj 189 541 +;
#X obj 100 374 t f f f, f 22;
#X obj 190 565 array set \$0-state;
#X obj 46 609 outlet;
#X obj 46 203 t b b f, f 16;
#X obj 46 565 array get \$0-state;
#X obj 197 155 list length;
#X obj 165 43 inlet;
#X obj 299 43 inlet;
#X obj 165 86 t l l;
#X obj 197 203 t f f f f;
#X obj 197 179 change;
#X obj 299 86 t l l;
#X text 262 249 set sizes acccording to lists, f 19;
#X text 260 374 index to calculate;
#X text 208 42 from;
#X text 340 42 to;
#X text 87 42 interp.;
#X text 442 42 inlets:;
#X text 442 62 - interpolation value (0..1);
#X text 442 82 - start list;
#X text 442 102 - target list;
#X connect 0 0 24 0;
#X connect 2 0 4 0;
#X connect 3 0 6 0;
#X connect 4 0 3 0;
#X connect 4 1 5 0;
#X connect 5 0 6 1;
#X connect 6 0 7 0;
#X connect 6 0 21 0;
#X connect 7 0 6 1;
#X connect 15 0 17 0;
#X connect 16 0 19 0;
#X connect 17 0 18 0;
#X connect 18 0 20 0;
#X connect 19 0 17 1;
#X connect 19 1 20 1;
#X connect 20 0 22 0;
#X connect 21 0 15 0;
#X connect 21 1 16 0;
#X connect 21 2 22 1;
#X connect 24 0 25 0;
#X connect 24 1 2 0;
#X connect 24 2 18 1;
#X connect 25 0 23 0;
#X connect 26 0 31 0;
#X connect 27 0 29 0;
#X connect 28 0 32 0;
#X connect 29 0 13 0;
#X connect 29 1 26 0;
#X connect 30 0 2 1;
#X connect 30 1 12 0;
#X connect 30 2 11 0;
#X connect 30 3 8 0;
#X connect 31 0 30 0;
#X connect 32 0 14 0;
#X connect 32 1 26 0;
