#N canvas 225 208 651 557 12;
#X obj 38 36 inlet~;
#X obj 58 350 mtof~;
#X obj 58 374 osc~;
#X obj 40 453 outlet~;
#X obj 297 36 loadbang;
#X obj 297 254 osc~;
#X obj 297 150 random 3e+08;
#X obj 390 150 random 3e+08;
#X obj 483 150 random 3e+08;
#X obj 483 174 / 3e+08;
#X obj 297 174 / 3e+08;
#X obj 390 174 / 3e+08;
#X obj 297 278 *~;
#X obj 483 198 pow 2;
#X obj 297 113 t b b b b b;
#X obj 40 407 *~;
#X obj 297 198 pow 3;
#X obj 58 178 / 199;
#X obj 58 314 +~;
#X obj 58 256 lop~ 10;
#X obj 58 229 + 10;
#X obj 58 154 f \$1;
#X obj 58 202 * 110;
#X obj 186 296 *~ 3;
#X obj 297 222 * 0.07;
#X msg 390 112 seed 4;
#X obj 38 92 pow~ 4;
#X obj 40 429 *~ 0.001;
#X connect 0 0 26 0;
#X connect 1 0 2 0;
#X connect 2 0 15 1;
#X connect 4 0 14 0;
#X connect 5 0 12 0;
#X connect 6 0 10 0;
#X connect 7 0 11 0;
#X connect 8 0 9 0;
#X connect 9 0 13 0;
#X connect 10 0 16 0;
#X connect 11 0 5 1;
#X connect 12 0 23 0;
#X connect 13 0 12 1;
#X connect 14 0 6 0;
#X connect 14 0 21 0;
#X connect 14 1 7 0;
#X connect 14 2 8 0;
#X connect 14 4 25 0;
#X connect 15 0 27 0;
#X connect 16 0 24 0;
#X connect 17 0 22 0;
#X connect 18 0 1 0;
#X connect 19 0 18 0;
#X connect 20 0 19 0;
#X connect 21 0 17 0;
#X connect 22 0 20 0;
#X connect 23 0 18 1;
#X connect 24 0 5 0;
#X connect 25 0 6 0;
#X connect 25 0 8 0;
#X connect 25 0 7 0;
#X connect 26 0 15 0;
#X connect 27 0 3 0;
