#N canvas 359 190 546 218 10;
#X obj 45 42 inlet;
#X obj 45 63 list split 1;
#X obj 45 145 list, f 6;
#X obj 45 166 s;
#X obj 45 83 t b s;
#X text 134 66 expects keyword argument lists from [argsparse] and sends to localized receivers with name pattern "\$0-kwarg-<keyword>";
#X msg 60 125 symbol \$2-kwarg-\$1;
#X text 132 39 requires \$0 as first argument;
#X obj 60 104 pack s \$1;
#X connect 0 0 1 0;
#X connect 1 0 4 0;
#X connect 1 1 2 1;
#X connect 2 0 3 0;
#X connect 4 0 2 0;
#X connect 4 1 8 0;
#X connect 6 0 3 1;
#X connect 8 0 6 0;
