#N canvas 655 165 690 543 12;
#X obj 72 44 inlet;
#X obj 113 138 list length;
#X obj 72 326 list store;
#X obj 72 242 until;
#X obj 72 266 random;
#X obj 113 162 f;
#X obj 142 162 - 1;
#X msg 72 302 get \$1 \, delete \$1;
#X msg 104 374 append \$1;
#X obj 51 205 t b b;
#X obj 51 412 list store, f 21;
#X obj 51 436 outlet;
#X obj 72 98 t b l l b, f 18;
#X obj 72 350 t b f;
#X text 206 151 count down from list length;
#X text 206 252 pick random element in decreasing range;
#X text 204 303 output element and delete;
#X text 204 350 append element to end of new list and bang for next element;
#X text 207 206 bang on length:0 stops loop and outputs list;
#X text 206 98 reset output list \, store input list \, start countdown;
#X obj 113 186 sel 0;
#X text 148 71 allow e.g. "seed" message to be routed through;
#X obj 72 71 route list;
#X connect 0 0 22 0;
#X connect 1 0 5 0;
#X connect 2 0 13 0;
#X connect 3 0 4 0;
#X connect 4 0 7 0;
#X connect 5 0 6 0;
#X connect 5 0 20 0;
#X connect 6 0 5 1;
#X connect 7 0 2 0;
#X connect 8 0 10 0;
#X connect 9 0 10 0;
#X connect 9 1 3 1;
#X connect 10 0 11 0;
#X connect 12 0 3 0;
#X connect 12 1 1 0;
#X connect 12 2 2 1;
#X connect 12 3 10 1;
#X connect 13 0 5 0;
#X connect 13 1 8 0;
#X connect 20 0 9 0;
#X connect 20 1 4 1;
#X connect 22 0 12 0;
#X connect 22 1 4 0;
